{"glyphs":{"0":{"ha":203,"x_min":0,"x_max":0,"o":"m 101 975 b 182 894 146 975 182 939 l 182 76 b 101 -6 182 31 146 -6 b 20 76 56 -6 20 31 l 20 894 b 101 975 20 939 56 975 m 121 899 b 101 919 121 910 112 919 b 81 899 90 919 81 910 l 81 71 b 101 51 81 60 90 51 b 121 71 112 51 121 60 "},"1":{"ha":101,"x_min":0,"x_max":0,"o":"m 81 0 l 20 0 l 20 914 l 0 914 l 0 970 l 81 970 "},"2":{"ha":203,"x_min":0,"x_max":0,"o":"m 101 457 b 81 437 90 457 81 448 l 81 56 l 121 56 l 121 436 l 182 436 l 182 0 l 20 0 l 20 432 b 101 513 20 477 56 513 b 121 533 112 513 121 522 l 121 899 b 101 919 121 910 112 919 b 81 899 90 919 81 910 l 81 535 l 20 535 l 20 894 b 101 975 20 939 56 975 b 182 894 146 975 182 939 l 182 538 b 101 457 182 494 146 457 "},"3":{"ha":203,"x_min":0,"x_max":0,"o":"m 182 535 b 165 485 182 516 176 499 b 182 434 176 471 182 453 l 182 76 b 101 -6 182 31 146 -6 b 20 76 56 -6 20 31 l 20 417 l 81 417 l 81 71 b 101 51 81 60 90 51 b 121 71 112 51 121 60 l 121 437 b 101 457 121 448 112 457 l 20 457 l 20 513 l 101 513 b 121 533 112 513 121 522 l 121 899 b 101 919 121 910 112 919 b 81 899 90 919 81 910 l 81 553 l 20 553 l 20 894 b 101 975 20 939 56 975 b 182 894 146 975 182 939 "},"4":{"ha":203,"x_min":0,"x_max":0,"o":"m 182 0 l 121 0 l 121 429 l 20 429 l 20 970 l 81 970 l 81 485 l 121 485 l 121 970 l 182 970 "},"5":{"ha":203,"x_min":0,"x_max":0,"o":"m 101 513 b 81 533 90 513 81 522 l 81 914 l 121 914 l 121 534 l 182 534 l 182 970 l 20 970 l 20 538 b 101 457 20 493 56 457 b 121 437 112 457 121 448 l 121 71 b 101 51 121 60 112 51 b 81 71 90 51 81 60 l 81 435 l 20 435 l 20 76 b 101 -6 20 31 56 -6 b 182 76 146 -6 182 31 l 182 432 b 101 513 182 476 146 513 "},"6":{"ha":203,"x_min":0,"x_max":0,"o":"m 20 894 b 101 975 20 939 56 975 b 182 894 146 975 182 939 l 182 536 l 121 536 l 121 899 b 101 919 121 910 112 919 b 81 899 90 919 81 910 l 81 512 b 101 514 88 514 94 514 b 182 433 146 514 182 478 l 182 76 b 101 -6 182 31 146 -6 b 20 76 56 -6 20 31 m 81 71 b 101 51 81 60 90 51 b 121 71 112 51 121 60 l 121 438 b 101 458 121 449 112 458 b 81 438 90 458 81 449 "},"7":{"ha":203,"x_min":0,"x_max":0,"o":"m 182 505 b 101 424 182 460 146 424 b 81 404 90 424 81 415 l 81 0 l 20 0 l 20 399 b 101 480 20 444 56 480 b 121 500 112 480 121 489 l 121 914 l 81 914 l 81 502 l 20 502 l 20 970 l 182 970 "},"8":{"ha":203,"x_min":0,"x_max":0,"o":"m 182 536 b 165 485 182 516 176 499 b 182 434 176 471 182 454 l 182 76 b 101 -6 182 31 146 -6 b 20 76 56 -6 20 31 l 20 434 b 38 485 20 454 27 471 b 20 536 27 499 20 516 l 20 894 b 101 975 20 939 56 975 b 182 894 146 975 182 939 m 101 513 b 121 533 112 513 121 522 l 121 899 b 101 919 121 910 112 919 b 81 899 90 919 81 910 l 81 533 b 101 513 81 522 90 513 m 121 437 b 101 457 121 448 112 457 b 81 437 90 457 81 448 l 81 71 b 101 51 81 60 90 51 b 121 71 112 51 121 60 "},"9":{"ha":203,"x_min":0,"x_max":0,"o":"m 182 78 b 101 -6 182 31 146 -6 b 20 76 56 -6 20 31 l 20 436 l 81 436 l 81 71 b 101 51 81 60 90 51 b 121 71 112 51 121 60 l 121 460 b 101 457 115 458 108 457 b 20 538 56 457 20 494 l 20 894 b 101 975 20 939 56 975 b 182 896 146 975 182 939 m 121 899 b 101 919 121 910 112 919 b 81 899 90 919 81 910 l 81 533 b 101 513 81 522 90 513 b 121 533 112 513 121 522 "},"A":{"ha":203,"x_min":0,"x_max":0,"o":"m 101 975 b 182 894 146 975 182 939 l 182 0 l 121 0 l 121 457 l 81 457 l 81 0 l 20 0 l 20 894 b 101 975 20 939 56 975 m 121 899 b 101 919 121 910 112 919 b 81 899 90 919 81 910 l 81 513 l 121 513 "},"Á":{"ha":203,"x_min":0,"x_max":0,"o":"m 66 1013 l 107 1099 l 164 1099 l 113 1013 m 101 975 b 182 894 146 975 182 939 l 182 0 l 121 0 l 121 457 l 81 457 l 81 0 l 20 0 l 20 894 b 101 975 20 939 56 975 m 121 899 b 101 919 121 910 112 919 b 81 899 90 919 81 910 l 81 513 l 121 513 "},"Ă":{"ha":203,"x_min":0,"x_max":0,"o":"m 100 1013 b 28 1085 60 1013 28 1045 l 28 1099 l 77 1099 l 77 1085 b 100 1062 77 1073 88 1062 b 124 1085 113 1062 124 1073 l 124 1099 l 174 1099 l 174 1085 b 100 1013 174 1045 140 1013 m 101 975 b 182 894 146 975 182 939 l 182 0 l 121 0 l 121 457 l 81 457 l 81 0 l 20 0 l 20 894 b 101 975 20 939 56 975 m 121 899 b 101 919 121 910 112 919 b 81 899 90 919 81 910 l 81 513 l 121 513 "},"Â":{"ha":203,"x_min":0,"x_max":0,"o":"m 29 1010 l 71 1099 l 131 1099 l 174 1010 l 127 1010 l 101 1055 l 76 1010 m 101 975 b 182 894 146 975 182 939 l 182 0 l 121 0 l 121 457 l 81 457 l 81 0 l 20 0 l 20 894 b 101 975 20 939 56 975 m 121 899 b 101 919 121 910 112 919 b 81 899 90 919 81 910 l 81 513 l 121 513 "},"Ä":{"ha":203,"x_min":0,"x_max":0,"o":"m 31 1017 l 31 1099 l 87 1099 l 87 1017 m 116 1017 l 116 1099 l 171 1099 l 171 1017 m 101 975 b 182 894 146 975 182 939 l 182 0 l 121 0 l 121 457 l 81 457 l 81 0 l 20 0 l 20 894 b 101 975 20 939 56 975 m 121 899 b 101 919 121 910 112 919 b 81 899 90 919 81 910 l 81 513 l 121 513 "},"À":{"ha":203,"x_min":0,"x_max":0,"o":"m 38 1099 l 95 1099 l 136 1013 l 89 1013 m 101 975 b 182 894 146 975 182 939 l 182 0 l 121 0 l 121 457 l 81 457 l 81 0 l 20 0 l 20 894 b 101 975 20 939 56 975 m 121 899 b 101 919 121 910 112 919 b 81 899 90 919 81 910 l 81 513 l 121 513 "},"Ā":{"ha":203,"x_min":0,"x_max":0,"o":"m 31 1017 l 31 1069 l 171 1069 l 171 1017 m 101 975 b 182 894 146 975 182 939 l 182 0 l 121 0 l 121 457 l 81 457 l 81 0 l 20 0 l 20 894 b 101 975 20 939 56 975 m 121 899 b 101 919 121 910 112 919 b 81 899 90 919 81 910 l 81 513 l 121 513 "},"Ą":{"ha":203,"x_min":0,"x_max":0,"o":"m 160 -61 b 195 -75 160 -81 183 -79 l 195 -132 b 120 -31 123 -147 84 -106 l 135 0 l 121 0 l 121 457 l 81 457 l 81 0 l 20 0 l 20 894 b 101 975 20 939 56 975 b 182 894 146 975 182 939 l 182 0 b 160 -61 171 -25 160 -50 m 121 899 b 101 919 121 910 112 919 b 81 899 90 919 81 910 l 81 513 l 121 513 "},"Å":{"ha":203,"x_min":0,"x_max":0,"o":"m 161 1049 b 41 1049 161 969 41 969 b 161 1049 41 1128 161 1128 m 127 1049 b 77 1049 127 1082 77 1082 b 127 1049 77 1015 127 1015 m 101 975 b 182 894 146 975 182 939 l 182 0 l 121 0 l 121 457 l 81 457 l 81 0 l 20 0 l 20 894 b 101 975 20 939 56 975 m 121 899 b 101 919 121 910 112 919 b 81 899 90 919 81 910 l 81 513 l 121 513 "},"Ã":{"ha":203,"x_min":0,"x_max":0,"o":"m 20 1024 b 109 1078 15 1089 60 1121 b 137 1093 130 1062 138 1075 l 181 1093 b 92 1039 187 1030 141 998 b 65 1024 72 1057 63 1044 m 101 975 b 182 894 146 975 182 939 l 182 0 l 121 0 l 121 457 l 81 457 l 81 0 l 20 0 l 20 894 b 101 975 20 939 56 975 m 121 899 b 101 919 121 910 112 919 b 81 899 90 919 81 910 l 81 513 l 121 513 "},"Æ":{"ha":303,"x_min":0,"x_max":0,"o":"m 222 914 l 182 914 l 182 513 l 283 513 l 283 457 l 182 457 l 182 56 l 222 56 l 222 417 l 283 417 l 283 0 l 121 0 l 121 457 l 81 457 l 81 0 l 20 0 l 20 889 b 101 970 20 933 56 970 l 283 970 l 283 553 l 222 553 m 121 894 b 101 914 121 905 112 914 b 81 894 90 914 81 905 l 81 513 l 121 513 "},"B":{"ha":203,"x_min":0,"x_max":0,"o":"m 182 81 b 101 0 182 36 146 0 l 20 0 l 20 970 l 101 970 b 182 889 146 970 182 934 l 182 537 b 165 486 182 518 176 500 b 182 436 176 472 182 455 m 121 894 b 101 914 121 905 112 914 l 81 914 l 81 513 l 101 513 b 121 533 112 513 121 522 m 121 436 b 101 457 121 447 112 457 l 81 457 l 81 56 l 101 56 b 121 76 112 56 121 65 "},"C":{"ha":203,"x_min":0,"x_max":0,"o":"m 182 76 b 101 -6 182 31 146 -6 b 20 76 56 -6 20 31 l 20 894 b 101 975 20 939 56 975 b 182 894 146 975 182 939 l 182 505 l 121 505 l 121 899 b 101 919 121 910 112 919 b 81 899 90 919 81 910 l 81 71 b 101 51 81 60 90 51 b 121 71 112 51 121 60 l 121 466 l 182 466 "},"Ć":{"ha":203,"x_min":0,"x_max":0,"o":"m 66 1013 l 107 1099 l 164 1099 l 113 1013 m 182 76 b 101 -6 182 31 146 -6 b 20 76 56 -6 20 31 l 20 894 b 101 975 20 939 56 975 b 182 894 146 975 182 939 l 182 505 l 121 505 l 121 899 b 101 919 121 910 112 919 b 81 899 90 919 81 910 l 81 71 b 101 51 81 60 90 51 b 121 71 112 51 121 60 l 121 466 l 182 466 "},"Č":{"ha":203,"x_min":0,"x_max":0,"o":"m 27 1099 l 74 1099 l 99 1055 l 126 1099 l 173 1099 l 130 1010 l 70 1010 m 182 76 b 101 -6 182 31 146 -6 b 20 76 56 -6 20 31 l 20 894 b 101 975 20 939 56 975 b 182 894 146 975 182 939 l 182 505 l 121 505 l 121 899 b 101 919 121 910 112 919 b 81 899 90 919 81 910 l 81 71 b 101 51 81 60 90 51 b 121 71 112 51 121 60 l 121 466 l 182 466 "},"Ç":{"ha":203,"x_min":0,"x_max":0,"o":"m 121 899 b 101 919 121 910 112 919 b 81 899 90 919 81 910 l 81 71 b 101 51 81 60 90 51 b 121 71 112 51 121 60 l 121 465 l 182 465 l 182 76 b 121 -3 182 38 156 6 l 120 -22 b 102 -135 199 -31 186 -139 b 47 -128 83 -135 65 -132 l 49 -90 b 101 -97 66 -94 83 -97 b 103 -53 131 -97 135 -53 b 74 -54 92 -53 85 -53 l 78 -1 b 20 76 45 8 20 39 l 20 894 b 101 975 20 939 56 975 b 182 894 146 975 182 939 l 182 505 l 121 505 "},"Ċ":{"ha":203,"x_min":0,"x_max":0,"o":"m 73 1017 l 73 1099 l 129 1099 l 129 1017 m 182 76 b 101 -6 182 31 146 -6 b 20 76 56 -6 20 31 l 20 894 b 101 975 20 939 56 975 b 182 894 146 975 182 939 l 182 505 l 121 505 l 121 899 b 101 919 121 910 112 919 b 81 899 90 919 81 910 l 81 71 b 101 51 81 60 90 51 b 121 71 112 51 121 60 l 121 466 l 182 466 "},"D":{"ha":203,"x_min":0,"x_max":0,"o":"m 101 970 b 182 889 146 970 182 934 l 182 81 b 101 0 182 36 146 0 l 20 0 l 20 970 m 121 894 b 101 914 121 905 112 914 l 81 914 l 81 56 l 101 56 b 121 76 112 56 121 65 "},"Ð":{"ha":203,"x_min":0,"x_max":0,"o":"m 20 506 l 20 968 l 101 968 b 182 886 146 968 182 931 l 182 79 b 101 0 182 36 146 0 l 20 0 l 20 459 l 0 459 l 0 506 m 101 506 l 101 459 l 81 459 l 81 56 l 101 56 b 121 74 112 56 121 65 l 121 892 b 101 912 121 903 112 912 l 81 912 l 81 506 "},"Ď":{"ha":203,"x_min":0,"x_max":0,"o":"m 27 1099 l 74 1099 l 99 1055 l 126 1099 l 173 1099 l 130 1010 l 70 1010 m 101 970 b 182 889 146 970 182 934 l 182 81 b 101 0 182 36 146 0 l 20 0 l 20 970 m 121 894 b 101 914 121 905 112 914 l 81 914 l 81 56 l 101 56 b 121 76 112 56 121 65 "},"Đ":{"ha":201,"x_min":0,"x_max":0,"o":"m 20 506 l 20 968 l 101 968 b 182 886 146 968 182 931 l 182 79 b 101 0 182 36 146 0 l 20 0 l 20 459 l 0 459 l 0 506 m 101 506 l 101 459 l 81 459 l 81 56 l 101 56 b 121 74 112 56 121 65 l 121 892 b 101 912 121 903 112 912 l 81 912 l 81 506 "},"E":{"ha":203,"x_min":0,"x_max":0,"o":"m 81 457 l 182 457 l 182 513 l 81 513 l 81 914 l 121 914 l 121 553 l 182 553 l 182 970 l 20 970 l 20 0 l 182 0 l 182 417 l 121 417 l 121 56 l 81 56 "},"É":{"ha":203,"x_min":0,"x_max":0,"o":"m 66 1013 l 107 1099 l 164 1099 l 113 1013 m 81 457 l 182 457 l 182 513 l 81 513 l 81 914 l 121 914 l 121 553 l 182 553 l 182 970 l 20 970 l 20 0 l 182 0 l 182 417 l 121 417 l 121 56 l 81 56 "},"Ě":{"ha":203,"x_min":0,"x_max":0,"o":"m 27 1099 l 74 1099 l 99 1055 l 126 1099 l 173 1099 l 130 1010 l 70 1010 m 81 457 l 182 457 l 182 513 l 81 513 l 81 914 l 121 914 l 121 553 l 182 553 l 182 970 l 20 970 l 20 0 l 182 0 l 182 417 l 121 417 l 121 56 l 81 56 "},"Ê":{"ha":203,"x_min":0,"x_max":0,"o":"m 29 1010 l 71 1099 l 131 1099 l 174 1010 l 127 1010 l 101 1055 l 76 1010 m 81 457 l 182 457 l 182 513 l 81 513 l 81 914 l 121 914 l 121 553 l 182 553 l 182 970 l 20 970 l 20 0 l 182 0 l 182 417 l 121 417 l 121 56 l 81 56 "},"Ë":{"ha":203,"x_min":0,"x_max":0,"o":"m 31 1017 l 31 1099 l 87 1099 l 87 1017 m 116 1017 l 116 1099 l 171 1099 l 171 1017 m 81 457 l 182 457 l 182 513 l 81 513 l 81 914 l 121 914 l 121 553 l 182 553 l 182 970 l 20 970 l 20 0 l 182 0 l 182 417 l 121 417 l 121 56 l 81 56 "},"Ė":{"ha":203,"x_min":0,"x_max":0,"o":"m 73 1017 l 73 1099 l 129 1099 l 129 1017 m 81 457 l 182 457 l 182 513 l 81 513 l 81 914 l 121 914 l 121 553 l 182 553 l 182 970 l 20 970 l 20 0 l 182 0 l 182 417 l 121 417 l 121 56 l 81 56 "},"È":{"ha":203,"x_min":0,"x_max":0,"o":"m 38 1099 l 95 1099 l 136 1013 l 89 1013 m 81 457 l 182 457 l 182 513 l 81 513 l 81 914 l 121 914 l 121 553 l 182 553 l 182 970 l 20 970 l 20 0 l 182 0 l 182 417 l 121 417 l 121 56 l 81 56 "},"Ē":{"ha":203,"x_min":0,"x_max":0,"o":"m 31 1017 l 31 1069 l 171 1069 l 171 1017 m 81 457 l 182 457 l 182 513 l 81 513 l 81 914 l 121 914 l 121 553 l 182 553 l 182 970 l 20 970 l 20 0 l 182 0 l 182 417 l 121 417 l 121 56 l 81 56 "},"Ę":{"ha":203,"x_min":0,"x_max":0,"o":"m 160 -61 b 195 -75 160 -81 183 -79 l 195 -132 b 120 -31 123 -147 84 -106 l 135 0 l 20 0 l 20 970 l 182 970 l 182 553 l 121 553 l 121 914 l 81 914 l 81 513 l 182 513 l 182 457 l 81 457 l 81 56 l 121 56 l 121 417 l 182 417 l 182 0 b 160 -61 171 -25 160 -50 "},"F":{"ha":203,"x_min":0,"x_max":0,"o":"m 121 914 l 81 914 l 81 513 l 182 513 l 182 457 l 81 457 l 81 0 l 20 0 l 20 970 l 182 970 l 182 553 l 121 553 "},"G":{"ha":203,"x_min":0,"x_max":0,"o":"m 121 899 b 101 919 121 910 112 919 b 81 899 90 919 81 910 l 81 71 b 101 51 81 60 90 51 b 121 71 112 51 121 60 l 121 457 l 101 457 l 101 513 l 182 513 l 182 76 b 101 -6 182 31 146 -6 b 20 76 56 -6 20 31 l 20 894 b 101 975 20 939 56 975 b 182 894 146 975 182 939 l 182 553 l 121 553 "},"Ğ":{"ha":203,"x_min":0,"x_max":0,"o":"m 100 1013 b 28 1085 60 1013 28 1045 l 28 1099 l 77 1099 l 77 1085 b 100 1062 77 1073 88 1062 b 124 1085 113 1062 124 1073 l 124 1099 l 174 1099 l 174 1085 b 100 1013 174 1045 140 1013 m 121 899 b 101 919 121 910 112 919 b 81 899 90 919 81 910 l 81 71 b 101 51 81 60 90 51 b 121 71 112 51 121 60 l 121 457 l 101 457 l 101 514 l 182 513 l 182 76 b 101 -6 182 31 146 -6 b 20 76 56 -6 20 31 l 20 894 b 101 975 20 939 56 975 b 182 894 146 975 182 939 l 182 553 l 121 553 "},"Ģ":{"ha":203,"x_min":0,"x_max":0,"o":"m 121 899 b 101 919 121 910 112 919 b 81 899 90 919 81 910 l 81 71 b 101 51 81 60 90 51 b 121 71 112 51 121 60 l 121 457 l 101 457 l 101 513 l 182 513 l 182 76 b 101 -6 182 31 146 -6 b 20 76 56 -6 20 31 l 20 894 b 101 975 20 939 56 975 b 182 894 146 975 182 939 l 182 553 l 121 553 m 127 -36 l 127 -100 l 108 -161 l 75 -161 l 75 -36 "},"Ġ":{"ha":203,"x_min":0,"x_max":0,"o":"m 73 1017 l 73 1099 l 129 1099 l 129 1017 m 121 899 b 101 919 121 910 112 919 b 81 899 90 919 81 910 l 81 71 b 101 51 81 60 90 51 b 121 71 112 51 121 60 l 121 457 l 101 457 l 101 514 l 182 513 l 182 76 b 101 -6 182 31 146 -6 b 20 76 56 -6 20 31 l 20 894 b 101 975 20 939 56 975 b 182 894 146 975 182 939 l 182 553 l 121 553 "},"H":{"ha":203,"x_min":0,"x_max":0,"o":"m 81 0 l 20 0 l 20 970 l 81 970 l 81 513 l 121 513 l 121 970 l 182 970 l 182 0 l 121 0 l 121 457 l 81 457 "},"Ħ":{"ha":203,"x_min":0,"x_max":0,"o":"m 182 718 l 182 0 l 121 0 l 121 457 l 81 457 l 81 0 l 20 0 l 20 718 l 0 718 l 0 765 l 20 765 l 20 970 l 81 970 l 81 765 l 121 765 l 121 970 l 182 970 l 182 765 l 202 765 l 202 718 m 81 718 l 81 513 l 121 513 l 121 718 "},"I":{"ha":101,"x_min":0,"x_max":0,"o":"m 81 0 l 20 0 l 20 970 l 81 970 "},"Ĳ":{"ha":303,"x_min":0,"x_max":0,"o":"m 81 0 l 20 0 l 20 970 l 81 970 m 121 914 l 222 914 l 222 71 b 202 51 222 60 213 51 b 182 71 191 51 182 60 l 182 516 l 121 516 l 121 76 b 202 -6 121 31 157 -6 b 283 76 247 -6 283 31 l 283 970 l 121 970 "},"Í":{"ha":101,"x_min":0,"x_max":0,"o":"m 16 1013 l 57 1099 l 114 1099 l 63 1013 m 81 0 l 20 0 l 20 970 l 81 970 "},"Î":{"ha":101,"x_min":0,"x_max":0,"o":"m -21 1010 l 22 1099 l 81 1099 l 124 1010 l 77 1010 l 51 1055 l 26 1010 m 81 0 l 20 0 l 20 970 l 81 970 "},"Ï":{"ha":101,"x_min":0,"x_max":0,"o":"m -19 1017 l -19 1099 l 37 1099 l 37 1017 m 66 1017 l 66 1099 l 121 1099 l 121 1017 m 81 0 l 20 0 l 20 970 l 81 970 "},"İ":{"ha":101,"x_min":0,"x_max":0,"o":"m 24 1017 l 24 1099 l 79 1099 l 79 1017 m 81 0 l 20 0 l 20 970 l 81 970 "},"Ì":{"ha":101,"x_min":0,"x_max":0,"o":"m -12 1099 l 45 1099 l 87 1013 l 39 1013 m 81 0 l 20 0 l 20 970 l 81 970 "},"Ī":{"ha":101,"x_min":0,"x_max":0,"o":"m -19 1017 l -19 1069 l 122 1069 l 122 1017 m 81 0 l 20 0 l 20 970 l 81 970 "},"Į":{"ha":101,"x_min":0,"x_max":0,"o":"m 59 -61 b 94 -75 59 -81 82 -79 l 94 -132 b 19 -31 22 -147 -18 -106 l 34 0 l 20 0 l 20 970 l 81 970 l 81 0 b 59 -61 70 -25 59 -50 "},"J":{"ha":203,"x_min":0,"x_max":0,"o":"m 20 914 l 121 914 l 121 71 b 101 51 121 60 112 51 b 81 71 90 51 81 60 l 81 516 l 20 516 l 20 76 b 101 -6 20 31 56 -6 b 182 76 146 -6 182 31 l 182 970 l 20 970 "},"K":{"ha":203,"x_min":0,"x_max":0,"o":"m 182 536 b 165 485 182 516 176 499 b 182 434 176 471 182 454 l 182 0 l 121 0 l 121 437 b 101 457 121 448 112 457 l 81 457 l 81 0 l 20 0 l 20 970 l 81 970 l 81 513 l 101 513 b 121 533 112 513 121 522 l 121 970 l 182 970 "},"Ķ":{"ha":203,"x_min":0,"x_max":0,"o":"m 182 536 b 165 485 182 516 176 499 b 182 434 176 471 182 454 l 182 0 l 121 0 l 121 437 b 101 457 121 448 112 457 l 81 457 l 81 0 l 20 0 l 20 970 l 81 970 l 81 513 l 101 513 b 121 533 112 513 121 522 l 121 970 l 182 970 m 127 -36 l 127 -100 l 108 -161 l 75 -161 l 75 -36 "},"L":{"ha":101,"x_min":0,"x_max":0,"o":"m 132 0 l 132 56 l 81 56 l 81 970 l 20 970 l 20 0 "},"Ĺ":{"ha":101,"x_min":0,"x_max":0,"o":"m 28 1013 l 70 1099 l 126 1099 l 75 1013 m 132 0 l 132 56 l 81 56 l 81 970 l 20 970 l 20 0 "},"Ľ":{"ha":101,"x_min":0,"x_max":0,"o":"m 132 56 l 132 0 l 20 0 l 20 970 l 81 970 l 81 56 m 154 906 l 134 845 l 101 845 l 101 970 l 154 970 "},"Ļ":{"ha":101,"x_min":0,"x_max":0,"o":"m 132 0 l 20 0 l 20 970 l 81 970 l 81 56 l 132 56 m 102 -36 l 102 -100 l 83 -161 l 49 -161 l 49 -36 "},"Ŀ":{"ha":151,"x_min":0,"x_max":0,"o":"m 132 56 l 132 0 l 20 0 l 20 970 l 81 970 l 81 56 m 151 441 l 101 441 l 101 529 l 151 529 "},"Ł":{"ha":103,"x_min":0,"x_max":0,"o":"m 133 0 l 21 0 l 21 448 l 0 439 l 0 486 l 21 495 l 21 970 l 82 970 l 82 523 l 101 531 l 101 484 l 82 476 l 82 56 l 133 56 "},"M":{"ha":303,"x_min":0,"x_max":0,"o":"m 202 975 b 283 894 247 975 283 939 l 283 0 l 222 0 l 222 899 b 202 919 222 910 213 919 b 182 899 191 919 182 910 l 182 0 l 121 0 l 121 899 b 101 919 121 910 112 919 b 81 899 90 919 81 910 l 81 0 l 20 0 l 20 894 b 101 975 20 939 56 975 b 152 957 120 975 138 968 b 202 975 166 968 183 975 "},"N":{"ha":303,"x_min":0,"x_max":0,"o":"m 283 76 b 202 -6 283 31 247 -6 b 121 76 157 -6 121 31 l 121 899 b 101 919 121 910 112 919 b 81 899 90 919 81 910 l 81 0 l 20 0 l 20 894 b 101 975 20 939 56 975 b 182 894 146 975 182 939 l 182 71 b 202 51 182 60 191 51 b 222 71 213 51 222 60 l 222 970 l 283 970 "},"Ń":{"ha":303,"x_min":0,"x_max":0,"o":"m 124 1013 l 165 1099 l 222 1099 l 171 1013 m 283 76 b 202 -6 283 31 247 -6 b 121 76 157 -6 121 31 l 121 899 b 101 919 121 910 112 919 b 81 899 90 919 81 910 l 81 0 l 20 0 l 20 894 b 101 975 20 939 56 975 b 182 894 146 975 182 939 l 182 71 b 202 51 182 60 191 51 b 222 71 213 51 222 60 l 222 970 l 283 970 "},"Ň":{"ha":303,"x_min":0,"x_max":0,"o":"m 85 1099 l 133 1099 l 157 1055 l 184 1099 l 231 1099 l 188 1010 l 128 1010 m 283 76 b 202 -6 283 31 247 -6 b 121 76 157 -6 121 31 l 121 899 b 101 919 121 910 112 919 b 81 899 90 919 81 910 l 81 0 l 20 0 l 20 894 b 101 975 20 939 56 975 b 182 894 146 975 182 939 l 182 71 b 202 51 182 60 191 51 b 222 71 213 51 222 60 l 222 970 l 283 970 "},"Ņ":{"ha":303,"x_min":0,"x_max":0,"o":"m 283 76 b 202 -6 283 31 247 -6 b 121 76 157 -6 121 31 l 121 899 b 101 919 121 910 112 919 b 81 899 90 919 81 910 l 81 0 l 20 0 l 20 894 b 101 975 20 939 56 975 b 182 894 146 975 182 939 l 182 71 b 202 51 182 60 191 51 b 222 71 213 51 222 60 l 222 970 l 283 970 m 178 -36 l 178 -100 l 159 -161 l 125 -161 l 125 -36 "},"Ŋ":{"ha":303,"x_min":0,"x_max":0,"o":"m 283 -54 b 202 -136 283 -99 247 -136 l 202 -79 b 222 -60 213 -79 222 -71 l 222 -3 b 202 -6 216 -4 209 -6 b 121 76 157 -6 121 31 l 121 899 b 101 919 121 910 112 919 b 81 899 90 919 81 910 l 81 0 l 20 0 l 20 894 b 101 975 20 939 56 975 b 182 894 146 975 182 939 l 182 71 b 202 51 182 60 191 51 b 222 71 213 51 222 60 l 222 970 l 283 970 "},"Ñ":{"ha":303,"x_min":0,"x_max":0,"o":"m 79 1024 b 167 1078 73 1089 119 1121 b 195 1093 188 1062 196 1075 l 239 1093 b 151 1039 245 1030 199 998 b 123 1024 130 1057 122 1044 m 283 76 b 202 -6 283 31 247 -6 b 121 76 157 -6 121 31 l 121 899 b 101 919 121 910 112 919 b 81 899 90 919 81 910 l 81 0 l 20 0 l 20 894 b 101 975 20 939 56 975 b 182 894 146 975 182 939 l 182 71 b 202 51 182 60 191 51 b 222 71 213 51 222 60 l 222 970 l 283 970 "},"O":{"ha":203,"x_min":0,"x_max":0,"o":"m 101 975 b 182 894 146 975 182 939 l 182 76 b 101 -6 182 31 146 -6 b 20 76 56 -6 20 31 l 20 894 b 101 975 20 939 56 975 m 121 899 b 101 919 121 910 112 919 b 81 899 90 919 81 910 l 81 71 b 101 51 81 60 90 51 b 121 71 112 51 121 60 "},"Ó":{"ha":203,"x_min":0,"x_max":0,"o":"m 66 1013 l 107 1099 l 164 1099 l 113 1013 m 101 975 b 182 894 146 975 182 939 l 182 76 b 101 -6 182 31 146 -6 b 20 76 56 -6 20 31 l 20 894 b 101 975 20 939 56 975 m 121 899 b 101 919 121 910 112 919 b 81 899 90 919 81 910 l 81 71 b 101 51 81 60 90 51 b 121 71 112 51 121 60 "},"Ô":{"ha":203,"x_min":0,"x_max":0,"o":"m 29 1010 l 71 1099 l 131 1099 l 174 1010 l 127 1010 l 101 1055 l 76 1010 m 101 975 b 182 894 146 975 182 939 l 182 76 b 101 -6 182 31 146 -6 b 20 76 56 -6 20 31 l 20 894 b 101 975 20 939 56 975 m 121 899 b 101 919 121 910 112 919 b 81 899 90 919 81 910 l 81 71 b 101 51 81 60 90 51 b 121 71 112 51 121 60 "},"Ö":{"ha":203,"x_min":0,"x_max":0,"o":"m 31 1017 l 31 1099 l 87 1099 l 87 1017 m 116 1017 l 116 1099 l 171 1099 l 171 1017 m 101 975 b 182 894 146 975 182 939 l 182 76 b 101 -6 182 31 146 -6 b 20 76 56 -6 20 31 l 20 894 b 101 975 20 939 56 975 m 121 899 b 101 919 121 910 112 919 b 81 899 90 919 81 910 l 81 71 b 101 51 81 60 90 51 b 121 71 112 51 121 60 "},"Ò":{"ha":203,"x_min":0,"x_max":0,"o":"m 38 1099 l 95 1099 l 136 1013 l 89 1013 m 101 975 b 182 894 146 975 182 939 l 182 76 b 101 -6 182 31 146 -6 b 20 76 56 -6 20 31 l 20 894 b 101 975 20 939 56 975 m 121 899 b 101 919 121 910 112 919 b 81 899 90 919 81 910 l 81 71 b 101 51 81 60 90 51 b 121 71 112 51 121 60 "},"Ő":{"ha":203,"x_min":0,"x_max":0,"o":"m 30 1012 l 71 1098 l 128 1098 l 77 1012 m 164 1098 l 221 1098 l 170 1012 l 123 1012 m 101 975 b 182 894 146 975 182 939 l 182 76 b 101 -6 182 31 146 -6 b 20 76 56 -6 20 31 l 20 894 b 101 975 20 939 56 975 m 121 899 b 101 919 121 910 112 919 b 81 899 90 919 81 910 l 81 71 b 101 51 81 60 90 51 b 121 71 112 51 121 60 "},"Ō":{"ha":203,"x_min":0,"x_max":0,"o":"m 31 1017 l 31 1069 l 171 1069 l 171 1017 m 101 975 b 182 894 146 975 182 939 l 182 76 b 101 -6 182 31 146 -6 b 20 76 56 -6 20 31 l 20 894 b 101 975 20 939 56 975 m 121 899 b 101 919 121 910 112 919 b 81 899 90 919 81 910 l 81 71 b 101 51 81 60 90 51 b 121 71 112 51 121 60 "},"Ø":{"ha":203,"x_min":0,"x_max":0,"o":"m 173 932 b 182 894 179 921 182 908 l 182 76 b 101 -6 182 31 146 -6 b 55 10 84 -6 68 0 l 48 -40 l 20 -40 l 30 37 b 20 76 24 49 20 62 l 20 894 b 101 975 20 939 56 975 b 148 960 119 975 135 970 l 154 1010 l 183 1010 m 121 751 l 121 899 b 101 919 121 910 112 919 b 81 899 90 919 81 910 l 81 441 m 81 219 l 81 71 b 101 51 81 60 90 51 b 121 71 112 51 121 60 l 121 529 "},"Õ":{"ha":203,"x_min":0,"x_max":0,"o":"m 20 1024 b 109 1078 15 1089 60 1121 b 137 1093 130 1062 138 1075 l 181 1093 b 92 1039 187 1030 141 998 b 65 1024 72 1057 63 1044 m 101 975 b 182 894 146 975 182 939 l 182 76 b 101 -6 182 31 146 -6 b 20 76 56 -6 20 31 l 20 894 b 101 975 20 939 56 975 m 121 899 b 101 919 121 910 112 919 b 81 899 90 919 81 910 l 81 71 b 101 51 81 60 90 51 b 121 71 112 51 121 60 "},"Œ":{"ha":303,"x_min":0,"x_max":0,"o":"m 222 914 l 182 914 l 182 889 l 182 513 l 283 513 l 283 457 l 182 457 l 182 56 l 222 56 l 222 417 l 283 417 l 283 0 l 101 0 b 20 81 56 0 20 36 l 20 889 b 101 970 20 933 56 970 l 283 970 l 283 553 l 222 553 m 121 894 b 101 914 121 905 112 914 b 81 894 90 914 81 905 l 81 76 b 101 56 81 65 90 56 b 121 76 112 56 121 65 "},"P":{"ha":203,"x_min":0,"x_max":0,"o":"m 81 0 l 20 0 l 20 970 l 101 970 b 182 889 146 970 182 934 l 182 505 b 101 424 182 460 146 424 l 81 424 m 101 480 b 121 500 112 480 121 489 l 121 894 b 101 914 121 905 112 914 l 81 914 l 81 480 "},"Þ":{"ha":203,"x_min":0,"x_max":0,"o":"m 101 759 b 182 677 146 759 182 722 l 182 293 b 101 212 182 248 146 212 l 81 212 l 81 0 l 20 0 l 20 970 l 81 970 l 81 759 m 121 683 b 101 702 121 693 112 702 l 81 702 l 81 268 l 101 268 b 121 288 112 268 121 277 "},"Q":{"ha":203,"x_min":0,"x_max":0,"o":"m 182 -8 b 202 -28 182 -19 191 -28 l 202 -85 b 121 -3 157 -85 121 -47 b 101 -6 115 -4 108 -6 b 20 76 56 -6 20 31 l 20 894 b 101 975 20 939 56 975 b 182 894 146 975 182 939 m 121 899 b 101 919 121 910 112 919 b 81 899 90 919 81 910 l 81 71 b 101 51 81 60 90 51 b 121 70 112 51 120 60 "},"R":{"ha":203,"x_min":0,"x_max":0,"o":"m 182 537 b 165 486 182 518 176 500 b 182 436 176 472 182 455 l 182 0 l 121 0 l 121 437 b 101 457 121 448 112 457 l 81 457 l 81 0 l 20 0 l 20 970 l 101 970 b 182 889 146 970 182 934 m 121 894 b 101 914 121 905 112 914 l 81 914 l 81 513 l 101 513 b 121 533 112 513 121 522 "},"Ŕ":{"ha":203,"x_min":0,"x_max":0,"o":"m 66 1013 l 107 1099 l 164 1099 l 113 1013 m 182 537 b 165 486 182 518 176 500 b 182 436 176 472 182 455 l 182 0 l 121 0 l 121 437 b 101 457 121 448 112 457 l 81 457 l 81 0 l 20 0 l 20 970 l 101 970 b 182 889 146 970 182 934 m 121 894 b 101 914 121 905 112 914 l 81 914 l 81 513 l 101 513 b 121 533 112 513 121 522 "},"Ř":{"ha":203,"x_min":0,"x_max":0,"o":"m 27 1099 l 74 1099 l 99 1055 l 126 1099 l 173 1099 l 130 1010 l 70 1010 m 182 537 b 165 486 182 518 176 500 b 182 436 176 472 182 455 l 182 0 l 121 0 l 121 437 b 101 457 121 448 112 457 l 81 457 l 81 0 l 20 0 l 20 970 l 101 970 b 182 889 146 970 182 934 m 121 894 b 101 914 121 905 112 914 l 81 914 l 81 513 l 101 513 b 121 533 112 513 121 522 "},"Ŗ":{"ha":203,"x_min":0,"x_max":0,"o":"m 182 537 b 165 486 182 518 176 500 b 182 436 176 472 182 455 l 182 0 l 121 0 l 121 437 b 101 457 121 448 112 457 l 81 457 l 81 0 l 20 0 l 20 970 l 101 970 b 182 889 146 970 182 934 m 121 894 b 101 914 121 905 112 914 l 81 914 l 81 513 l 101 513 b 121 533 112 513 121 522 m 127 -36 l 127 -100 l 108 -161 l 75 -161 l 75 -36 "},"S":{"ha":203,"x_min":0,"x_max":0,"o":"m 121 899 b 101 919 121 910 112 919 b 81 899 90 919 81 910 l 81 533 b 101 513 81 522 90 513 b 182 432 146 513 182 477 l 182 76 b 101 -6 182 31 146 -6 b 20 76 56 -6 20 31 l 20 436 l 81 436 l 81 71 b 101 51 81 60 90 51 b 121 71 112 51 121 60 l 121 437 b 101 457 121 448 112 457 b 20 538 56 457 20 493 l 20 894 b 101 975 20 939 56 975 b 182 894 146 975 182 939 l 182 534 l 121 534 "},"Ś":{"ha":203,"x_min":0,"x_max":0,"o":"m 66 1013 l 107 1099 l 164 1099 l 113 1013 m 121 899 b 101 919 121 910 112 919 b 81 899 90 919 81 910 l 81 533 b 101 513 81 522 90 513 b 182 432 146 513 182 477 l 182 76 b 101 -6 182 31 146 -6 b 20 76 56 -6 20 31 l 20 436 l 81 436 l 81 71 b 101 51 81 60 90 51 b 121 71 112 51 121 60 l 121 437 b 101 457 121 448 112 457 b 20 538 56 457 20 493 l 20 894 b 101 975 20 939 56 975 b 182 894 146 975 182 939 l 182 534 l 121 534 "},"Š":{"ha":203,"x_min":0,"x_max":0,"o":"m 27 1099 l 74 1099 l 99 1055 l 126 1099 l 173 1099 l 130 1010 l 70 1010 m 121 899 b 101 919 121 910 112 919 b 81 899 90 919 81 910 l 81 533 b 101 513 81 522 90 513 b 182 432 146 513 182 477 l 182 76 b 101 -6 182 31 146 -6 b 20 76 56 -6 20 31 l 20 436 l 81 436 l 81 71 b 101 51 81 60 90 51 b 121 71 112 51 121 60 l 121 437 b 101 457 121 448 112 457 b 20 538 56 457 20 493 l 20 894 b 101 975 20 939 56 975 b 182 894 146 975 182 939 l 182 534 l 121 534 "},"Ş":{"ha":203,"x_min":0,"x_max":0,"o":"m 121 899 b 101 919 121 910 112 919 b 81 899 90 919 81 910 l 81 533 b 101 513 81 522 90 513 b 182 432 146 513 182 477 l 182 76 b 122 -3 182 39 157 7 l 121 -22 b 103 -135 200 -31 188 -139 b 48 -128 84 -135 66 -132 l 51 -90 b 102 -97 67 -94 84 -97 b 105 -53 132 -97 137 -53 b 76 -54 94 -53 87 -53 l 79 -3 b 20 76 45 7 20 39 l 20 435 l 81 435 l 81 71 b 101 51 81 60 90 51 b 121 71 112 51 121 60 l 121 437 b 101 457 121 448 112 457 b 20 538 56 457 20 493 l 20 894 b 101 975 20 939 56 975 b 182 894 146 975 182 939 l 182 534 l 121 534 "},"Ș":{"ha":203,"x_min":0,"x_max":0,"o":"m 121 899 b 101 919 121 910 112 919 b 81 899 90 919 81 910 l 81 533 b 101 513 81 522 90 513 b 182 432 146 513 182 477 l 182 76 b 101 -6 182 31 146 -6 b 20 76 56 -6 20 31 l 20 435 l 81 435 l 81 71 b 101 51 81 60 90 51 b 121 71 112 51 121 60 l 121 437 b 101 457 121 448 112 457 b 20 538 56 457 20 493 l 20 894 b 101 975 20 939 56 975 b 182 894 146 975 182 939 l 182 534 l 121 534 m 129 -36 l 129 -100 l 109 -161 l 76 -161 l 76 -36 "},"T":{"ha":101,"x_min":0,"x_max":0,"o":"m 131 914 l 81 914 l 81 0 l 20 0 l 20 914 l -31 914 l -31 970 l 131 970 "},"Ŧ":{"ha":101,"x_min":0,"x_max":0,"o":"m -19 1017 l -19 1069 l 121 1069 l 121 1017 m 132 914 l 81 914 l 81 0 l 20 0 l 20 914 l -31 914 l -31 970 l 132 970 "},"Ť":{"ha":101,"x_min":0,"x_max":0,"o":"m -23 1099 l 24 1099 l 49 1055 l 75 1099 l 122 1099 l 79 1010 l 20 1010 m 131 914 l 81 914 l 81 0 l 20 0 l 20 914 l -31 914 l -31 970 l 131 970 "},"Ţ":{"ha":101,"x_min":0,"x_max":0,"o":"m 70 -22 b 52 -135 149 -31 137 -139 b -3 -128 33 -135 15 -132 l 0 -90 b 51 -97 16 -94 33 -97 b 54 -53 81 -97 86 -53 b 25 -54 43 -53 36 -53 l 29 0 l 20 0 l 20 914 l -31 914 l -31 970 l 131 970 l 131 914 l 81 914 l 81 0 l 72 0 "},"Ț":{"ha":101,"x_min":0,"x_max":0,"o":"m 132 914 l 81 914 l 81 0 l 20 0 l 20 914 l -31 914 l -31 970 l 132 970 m 77 -36 l 77 -100 l 57 -161 l 24 -161 l 24 -36 "},"U":{"ha":203,"x_min":0,"x_max":0,"o":"m 182 76 b 101 -6 182 31 146 -6 b 20 76 56 -6 20 31 l 20 970 l 81 970 l 81 71 b 101 51 81 60 90 51 b 121 71 112 51 121 60 l 121 970 l 182 970 "},"Ú":{"ha":203,"x_min":0,"x_max":0,"o":"m 66 1013 l 107 1099 l 164 1099 l 113 1013 m 182 76 b 101 -6 182 31 146 -6 b 20 76 56 -6 20 31 l 20 970 l 81 970 l 81 71 b 101 51 81 60 90 51 b 121 71 112 51 121 60 l 121 970 l 182 970 "},"Û":{"ha":203,"x_min":0,"x_max":0,"o":"m 29 1010 l 71 1099 l 131 1099 l 174 1010 l 127 1010 l 101 1055 l 76 1010 m 182 76 b 101 -6 182 31 146 -6 b 20 76 56 -6 20 31 l 20 970 l 81 970 l 81 71 b 101 51 81 60 90 51 b 121 71 112 51 121 60 l 121 970 l 182 970 "},"Ü":{"ha":203,"x_min":0,"x_max":0,"o":"m 31 1017 l 31 1099 l 87 1099 l 87 1017 m 116 1017 l 116 1099 l 171 1099 l 171 1017 m 182 76 b 101 -6 182 31 146 -6 b 20 76 56 -6 20 31 l 20 970 l 81 970 l 81 71 b 101 51 81 60 90 51 b 121 71 112 51 121 60 l 121 970 l 182 970 "},"Ù":{"ha":203,"x_min":0,"x_max":0,"o":"m 38 1099 l 95 1099 l 136 1013 l 89 1013 m 182 76 b 101 -6 182 31 146 -6 b 20 76 56 -6 20 31 l 20 970 l 81 970 l 81 71 b 101 51 81 60 90 51 b 121 71 112 51 121 60 l 121 970 l 182 970 "},"Ű":{"ha":203,"x_min":0,"x_max":0,"o":"m 30 1012 l 71 1098 l 128 1098 l 77 1012 m 164 1098 l 221 1098 l 170 1012 l 123 1012 m 182 76 b 101 -6 182 31 146 -6 b 20 76 56 -6 20 31 l 20 970 l 81 970 l 81 71 b 101 51 81 60 90 51 b 121 71 112 51 121 60 l 121 970 l 182 970 "},"Ū":{"ha":203,"x_min":0,"x_max":0,"o":"m 31 1017 l 31 1069 l 171 1069 l 171 1017 m 182 76 b 101 -6 182 31 146 -6 b 20 76 56 -6 20 31 l 20 970 l 81 970 l 81 71 b 101 51 81 60 90 51 b 121 71 112 51 121 60 l 121 970 l 182 970 "},"Ų":{"ha":203,"x_min":0,"x_max":0,"o":"m 182 76 b 175 43 182 64 179 53 b 133 -61 162 9 133 -42 b 169 -75 133 -81 157 -79 l 169 -132 b 94 -31 97 -147 57 -106 l 106 -6 b 101 -6 105 -6 103 -6 b 20 76 56 -6 20 31 l 20 970 l 81 970 l 81 71 b 101 51 81 60 90 51 b 121 71 112 51 121 60 l 121 970 l 182 970 "},"Ů":{"ha":203,"x_min":0,"x_max":0,"o":"m 161 1049 b 41 1049 161 969 41 969 b 161 1049 41 1128 161 1128 m 127 1049 b 77 1049 127 1082 77 1082 b 127 1049 77 1015 127 1015 m 182 76 b 101 -6 182 31 146 -6 b 20 76 56 -6 20 31 l 20 970 l 81 970 l 81 71 b 101 51 81 60 90 51 b 121 71 112 51 121 60 l 121 970 l 182 970 "},"V":{"ha":203,"x_min":0,"x_max":0,"o":"m 81 56 l 101 56 b 121 76 112 56 121 65 l 121 970 l 182 970 l 182 81 b 101 0 182 36 146 0 l 20 0 l 20 970 l 81 970 "},"W":{"ha":303,"x_min":0,"x_max":0,"o":"m 101 -6 b 20 76 56 -6 20 31 l 20 970 l 81 970 l 81 71 b 101 51 81 60 90 51 b 121 71 112 51 121 60 l 121 970 l 182 970 l 182 71 b 202 51 182 60 191 51 b 222 71 213 51 222 60 l 222 970 l 283 970 l 283 76 b 202 -6 283 31 247 -6 b 152 13 183 -6 166 1 b 101 -6 138 1 120 -6 "},"Ẃ":{"ha":303,"x_min":0,"x_max":0,"o":"m 117 1013 l 158 1099 l 215 1099 l 164 1013 m 101 -6 b 20 76 56 -6 20 31 l 20 970 l 81 970 l 81 71 b 101 51 81 60 90 51 b 121 71 112 51 121 60 l 121 970 l 182 970 l 182 71 b 202 51 182 60 191 51 b 222 71 213 51 222 60 l 222 970 l 283 970 l 283 76 b 202 -6 283 31 247 -6 b 152 13 183 -6 166 1 b 101 -6 138 1 120 -6 "},"Ŵ":{"ha":303,"x_min":0,"x_max":0,"o":"m 80 1010 l 123 1099 l 182 1099 l 225 1010 l 178 1010 l 152 1055 l 127 1010 m 101 -6 b 20 76 56 -6 20 31 l 20 970 l 81 970 l 81 71 b 101 51 81 60 90 51 b 121 71 112 51 121 60 l 121 970 l 182 970 l 182 71 b 202 51 182 60 191 51 b 222 71 213 51 222 60 l 222 970 l 283 970 l 283 76 b 202 -6 283 31 247 -6 b 152 13 183 -6 166 1 b 101 -6 138 1 120 -6 "},"Ẅ":{"ha":303,"x_min":0,"x_max":0,"o":"m 82 1017 l 82 1099 l 138 1099 l 138 1017 m 167 1017 l 167 1099 l 222 1099 l 222 1017 m 101 -6 b 20 76 56 -6 20 31 l 20 970 l 81 970 l 81 71 b 101 51 81 60 90 51 b 121 71 112 51 121 60 l 121 970 l 182 970 l 182 71 b 202 51 182 60 191 51 b 222 71 213 51 222 60 l 222 970 l 283 970 l 283 76 b 202 -6 283 31 247 -6 b 152 13 183 -6 166 1 b 101 -6 138 1 120 -6 "},"Ẁ":{"ha":303,"x_min":0,"x_max":0,"o":"m 89 1099 l 146 1099 l 188 1013 l 140 1013 m 101 -6 b 20 76 56 -6 20 31 l 20 970 l 81 970 l 81 71 b 101 51 81 60 90 51 b 121 71 112 51 121 60 l 121 970 l 182 970 l 182 71 b 202 51 182 60 191 51 b 222 71 213 51 222 60 l 222 970 l 283 970 l 283 76 b 202 -6 283 31 247 -6 b 152 13 183 -6 166 1 b 101 -6 138 1 120 -6 "},"X":{"ha":203,"x_min":0,"x_max":0,"o":"m 182 535 b 165 484 182 516 176 498 b 182 434 176 471 182 453 l 182 0 l 121 0 l 121 437 b 101 457 121 448 112 457 b 81 437 90 457 81 448 l 81 0 l 20 0 l 20 434 b 38 484 20 453 27 471 b 20 535 27 498 20 516 l 20 970 l 81 970 l 81 533 b 101 513 81 522 90 513 b 121 533 112 513 121 522 l 121 970 l 182 970 "},"Y":{"ha":203,"x_min":0,"x_max":0,"o":"m 182 500 b 132 424 182 466 161 436 l 132 0 l 70 0 l 70 424 b 20 499 41 436 20 466 l 20 970 l 81 970 l 81 494 b 101 474 81 483 90 474 b 121 494 112 474 121 483 l 121 970 l 182 970 "},"Ý":{"ha":203,"x_min":0,"x_max":0,"o":"m 65 1013 l 107 1099 l 164 1099 l 112 1013 m 182 500 b 132 424 182 466 161 436 l 132 0 l 70 0 l 70 424 b 20 500 41 436 20 466 l 20 970 l 81 970 l 81 494 b 101 474 81 483 90 474 b 121 494 112 474 121 483 l 121 970 l 182 970 "},"Ŷ":{"ha":203,"x_min":0,"x_max":0,"o":"m 28 1010 l 71 1099 l 131 1099 l 174 1010 l 127 1010 l 100 1055 l 75 1010 m 182 500 b 132 424 182 466 161 436 l 132 0 l 70 0 l 70 424 b 20 499 41 436 20 466 l 20 970 l 81 970 l 81 494 b 101 474 81 483 90 474 b 121 494 112 474 121 483 l 121 970 l 182 970 "},"Ÿ":{"ha":203,"x_min":0,"x_max":0,"o":"m 31 1017 l 31 1099 l 86 1099 l 86 1017 m 115 1017 l 115 1099 l 171 1099 l 171 1017 m 182 500 b 132 424 182 466 161 436 l 132 0 l 70 0 l 70 424 b 20 500 41 436 20 466 l 20 970 l 81 970 l 81 494 b 101 474 81 483 90 474 b 121 494 112 474 121 483 l 121 970 l 182 970 "},"Ỳ":{"ha":203,"x_min":0,"x_max":0,"o":"m 37 1099 l 94 1099 l 136 1013 l 89 1013 m 182 500 b 132 424 182 466 161 436 l 132 0 l 70 0 l 70 424 b 20 500 41 436 20 466 l 20 970 l 81 970 l 81 494 b 101 474 81 483 90 474 b 121 494 112 474 121 483 l 121 970 l 182 970 "},"Z":{"ha":203,"x_min":0,"x_max":0,"o":"m 81 914 l 81 534 l 20 534 l 20 970 l 182 970 l 182 538 b 101 457 182 493 146 457 b 81 437 90 457 81 448 l 81 56 l 121 56 l 121 436 l 182 436 l 182 0 l 20 0 l 20 432 b 101 513 20 477 56 513 b 121 533 112 513 121 522 l 121 914 "},"Ź":{"ha":203,"x_min":0,"x_max":0,"o":"m 64 1013 l 106 1099 l 162 1099 l 111 1013 m 81 914 l 81 534 l 20 534 l 20 970 l 182 970 l 182 538 b 101 457 182 493 146 457 b 81 437 90 457 81 448 l 81 56 l 121 56 l 121 436 l 182 436 l 182 0 l 20 0 l 20 432 b 101 513 20 477 56 513 b 121 533 112 513 121 522 l 121 914 "},"Ž":{"ha":203,"x_min":0,"x_max":0,"o":"m 26 1099 l 73 1099 l 98 1055 l 124 1099 l 171 1099 l 128 1010 l 69 1010 m 81 914 l 81 534 l 20 534 l 20 970 l 182 970 l 182 538 b 101 457 182 493 146 457 b 81 437 90 457 81 448 l 81 56 l 121 56 l 121 436 l 182 436 l 182 0 l 20 0 l 20 432 b 101 513 20 477 56 513 b 121 533 112 513 121 522 l 121 914 "},"Ż":{"ha":203,"x_min":0,"x_max":0,"o":"m 72 1017 l 72 1099 l 127 1099 l 127 1017 m 81 914 l 81 534 l 20 534 l 20 970 l 182 970 l 182 538 b 101 457 182 493 146 457 b 81 437 90 457 81 448 l 81 56 l 121 56 l 121 436 l 182 436 l 182 0 l 20 0 l 20 432 b 101 513 20 477 56 513 b 121 533 112 513 121 522 l 121 914 "},"a":{"ha":203,"x_min":0,"x_max":0,"o":"m 20 367 b 101 448 20 412 56 448 b 121 445 108 448 115 447 l 121 769 b 101 789 121 780 112 789 b 81 769 90 789 81 780 l 81 469 l 20 469 l 20 764 b 101 845 20 809 56 845 b 182 764 146 845 182 809 l 182 76 b 101 -6 182 31 146 -6 b 20 76 56 -6 20 31 m 81 71 b 101 51 81 60 90 51 b 121 71 112 51 121 60 l 121 372 b 101 392 121 383 112 392 b 81 372 90 392 81 383 "},"á":{"ha":203,"x_min":0,"x_max":0,"o":"m 66 884 l 107 970 l 164 970 l 113 884 m 20 367 b 101 448 20 412 56 448 b 121 445 108 448 115 447 l 121 769 b 101 789 121 780 112 789 b 81 769 90 789 81 780 l 81 469 l 20 469 l 20 764 b 101 845 20 809 56 845 b 182 764 146 845 182 809 l 182 76 b 101 -6 182 31 146 -6 b 20 76 56 -6 20 31 m 81 71 b 101 51 81 60 90 51 b 121 71 112 51 121 60 l 121 372 b 101 392 121 383 112 392 b 81 372 90 392 81 383 "},"ă":{"ha":203,"x_min":0,"x_max":0,"o":"m 100 884 b 28 956 60 884 28 916 l 28 970 l 77 970 l 77 956 b 100 932 77 944 88 932 b 124 956 113 932 124 944 l 124 970 l 174 970 l 174 956 b 100 884 174 916 140 884 m 20 367 b 101 448 20 412 56 448 b 121 445 108 448 115 447 l 121 769 b 101 789 121 780 112 789 b 81 769 90 789 81 780 l 81 469 l 20 469 l 20 764 b 101 845 20 809 56 845 b 182 764 146 845 182 809 l 182 76 b 101 -6 182 31 146 -6 b 20 76 56 -6 20 31 m 81 71 b 101 51 81 60 90 51 b 121 71 112 51 121 60 l 121 372 b 101 392 121 383 112 392 b 81 372 90 392 81 383 "},"â":{"ha":203,"x_min":0,"x_max":0,"o":"m 29 881 l 71 970 l 131 970 l 174 881 l 127 881 l 101 925 l 76 881 m 20 367 b 101 448 20 412 56 448 b 121 445 108 448 115 447 l 121 769 b 101 789 121 780 112 789 b 81 769 90 789 81 780 l 81 469 l 20 469 l 20 764 b 101 845 20 809 56 845 b 182 764 146 845 182 809 l 182 76 b 101 -6 182 31 146 -6 b 20 76 56 -6 20 31 m 81 71 b 101 51 81 60 90 51 b 121 71 112 51 121 60 l 121 372 b 101 392 121 383 112 392 b 81 372 90 392 81 383 "},"ä":{"ha":203,"x_min":0,"x_max":0,"o":"m 31 888 l 31 970 l 87 970 l 87 888 m 116 888 l 116 970 l 171 970 l 171 888 m 20 367 b 101 448 20 412 56 448 b 121 445 108 448 115 447 l 121 769 b 101 789 121 780 112 789 b 81 769 90 789 81 780 l 81 469 l 20 469 l 20 764 b 101 845 20 809 56 845 b 182 764 146 845 182 809 l 182 76 b 101 -6 182 31 146 -6 b 20 76 56 -6 20 31 m 81 71 b 101 51 81 60 90 51 b 121 71 112 51 121 60 l 121 372 b 101 392 121 383 112 392 b 81 372 90 392 81 383 "},"à":{"ha":203,"x_min":0,"x_max":0,"o":"m 38 970 l 95 970 l 136 884 l 89 884 m 20 367 b 101 448 20 412 56 448 b 121 445 108 448 115 447 l 121 769 b 101 789 121 780 112 789 b 81 769 90 789 81 780 l 81 469 l 20 469 l 20 764 b 101 845 20 809 56 845 b 182 764 146 845 182 809 l 182 76 b 101 -6 182 31 146 -6 b 20 76 56 -6 20 31 m 81 71 b 101 51 81 60 90 51 b 121 71 112 51 121 60 l 121 372 b 101 392 121 383 112 392 b 81 372 90 392 81 383 "},"ā":{"ha":203,"x_min":0,"x_max":0,"o":"m 31 888 l 31 940 l 171 940 l 171 888 m 20 367 b 101 448 20 412 56 448 b 121 445 108 448 115 447 l 121 769 b 101 789 121 780 112 789 b 81 769 90 789 81 780 l 81 469 l 20 469 l 20 764 b 101 845 20 809 56 845 b 182 764 146 845 182 809 l 182 76 b 101 -6 182 31 146 -6 b 20 76 56 -6 20 31 m 81 71 b 101 51 81 60 90 51 b 121 71 112 51 121 60 l 121 372 b 101 392 121 383 112 392 b 81 372 90 392 81 383 "},"ą":{"ha":203,"x_min":0,"x_max":0,"o":"m 182 76 b 175 43 182 64 179 53 b 133 -61 162 9 133 -42 b 169 -75 133 -81 157 -79 l 169 -132 b 94 -31 97 -147 57 -106 l 106 -6 b 101 -6 105 -6 103 -6 b 20 76 56 -6 20 31 l 20 367 b 101 448 20 411 56 448 b 121 445 108 448 115 447 l 121 769 b 101 789 121 780 112 789 b 81 769 90 789 81 780 l 81 469 l 20 469 l 20 764 b 101 845 20 809 56 845 b 182 764 146 845 182 809 m 121 372 b 101 392 121 383 112 392 b 81 372 90 392 81 383 l 81 71 b 101 51 81 60 90 51 b 121 71 112 51 121 60 "},"å":{"ha":203,"x_min":0,"x_max":0,"o":"m 161 920 b 41 920 161 840 41 840 b 161 920 41 999 161 999 m 127 920 b 77 920 127 953 77 953 b 127 920 77 885 127 885 m 20 367 b 101 448 20 412 56 448 b 121 445 108 448 115 447 l 121 769 b 101 789 121 780 112 789 b 81 769 90 789 81 780 l 81 469 l 20 469 l 20 764 b 101 845 20 809 56 845 b 182 764 146 845 182 809 l 182 76 b 101 -6 182 31 146 -6 b 20 76 56 -6 20 31 m 81 71 b 101 51 81 60 90 51 b 121 71 112 51 121 60 l 121 372 b 101 392 121 383 112 392 b 81 372 90 392 81 383 "},"ã":{"ha":203,"x_min":0,"x_max":0,"o":"m 20 895 b 109 949 15 960 60 992 b 137 964 130 932 138 946 l 181 964 b 92 910 187 901 141 869 b 65 895 72 928 63 914 m 20 367 b 101 448 20 412 56 448 b 121 445 108 448 115 447 l 121 769 b 101 789 121 780 112 789 b 81 769 90 789 81 780 l 81 469 l 20 469 l 20 764 b 101 845 20 809 56 845 b 182 764 146 845 182 809 l 182 76 b 101 -6 182 31 146 -6 b 20 76 56 -6 20 31 m 81 71 b 101 51 81 60 90 51 b 121 71 112 51 121 60 l 121 372 b 101 392 121 383 112 392 b 81 372 90 392 81 383 "},"æ":{"ha":303,"x_min":0,"x_max":0,"o":"m 202 845 b 283 764 247 845 283 809 l 283 392 l 182 392 l 182 71 b 202 51 182 60 191 51 b 222 71 213 51 222 60 l 222 352 l 283 352 l 283 76 b 202 -6 283 31 247 -6 b 152 12 183 -6 166 1 b 101 -6 138 1 120 -6 b 20 76 56 -6 20 31 l 20 369 b 101 451 20 414 56 451 b 121 448 108 451 115 450 l 121 769 b 101 789 121 780 112 789 b 81 769 90 789 81 780 l 81 472 l 20 472 l 20 764 b 101 845 20 809 56 845 b 152 827 120 845 138 838 b 202 845 166 838 183 845 m 222 769 b 202 789 222 780 213 789 b 182 769 191 789 182 780 l 182 448 l 222 448 m 121 375 b 101 394 121 385 112 394 b 81 375 90 394 81 385 l 81 71 b 101 51 81 60 90 51 b 121 71 112 51 121 60 "},"b":{"ha":203,"x_min":0,"x_max":0,"o":"m 182 76 b 101 -6 182 31 146 -6 b 20 76 56 -6 20 31 l 20 970 l 81 970 l 81 843 b 101 845 88 844 94 845 b 182 764 146 845 182 809 m 121 769 b 101 789 121 780 112 789 b 81 769 90 789 81 780 l 81 71 b 101 51 81 60 90 51 b 121 71 112 51 121 60 "},"c":{"ha":203,"x_min":0,"x_max":0,"o":"m 182 76 b 101 -6 182 31 146 -6 b 20 76 56 -6 20 31 l 20 764 b 101 845 20 809 56 845 b 182 764 146 845 182 809 l 182 440 l 121 440 l 121 769 b 101 789 121 780 112 789 b 81 769 90 789 81 780 l 81 71 b 101 51 81 60 90 51 b 121 71 112 51 121 60 l 121 400 l 182 400 "},"ć":{"ha":203,"x_min":0,"x_max":0,"o":"m 66 884 l 107 970 l 164 970 l 113 884 m 182 76 b 101 -6 182 31 146 -6 b 20 76 56 -6 20 31 l 20 764 b 101 845 20 809 56 845 b 182 764 146 845 182 809 l 182 440 l 121 440 l 121 769 b 101 789 121 780 112 789 b 81 769 90 789 81 780 l 81 71 b 101 51 81 60 90 51 b 121 71 112 51 121 60 l 121 400 l 182 400 "},"č":{"ha":203,"x_min":0,"x_max":0,"o":"m 27 970 l 74 970 l 99 926 l 125 970 l 173 970 l 130 881 l 70 881 m 182 76 b 101 -6 182 31 146 -6 b 20 76 56 -6 20 31 l 20 764 b 101 845 20 809 56 845 b 182 764 146 845 182 809 l 182 440 l 121 440 l 121 769 b 101 789 121 780 112 789 b 81 769 90 789 81 780 l 81 71 b 101 51 81 60 90 51 b 121 71 112 51 121 60 l 121 400 l 182 400 "},"ç":{"ha":203,"x_min":0,"x_max":0,"o":"m 121 769 b 101 789 121 780 112 789 b 81 769 90 789 81 780 l 81 71 b 101 51 81 60 90 51 b 121 71 112 51 121 60 l 121 400 l 182 400 l 182 76 b 121 -3 182 38 156 6 l 120 -22 b 102 -135 199 -31 186 -139 b 47 -128 83 -135 65 -132 l 49 -90 b 101 -97 66 -94 83 -97 b 103 -53 131 -97 135 -53 b 74 -54 92 -53 85 -53 l 78 -1 b 20 76 45 8 20 39 l 20 764 b 101 845 20 809 56 845 b 182 764 146 845 182 809 l 182 440 l 121 440 "},"ċ":{"ha":203,"x_min":0,"x_max":0,"o":"m 73 888 l 73 970 l 129 970 l 129 888 m 182 76 b 101 -6 182 31 146 -6 b 20 76 56 -6 20 31 l 20 764 b 101 845 20 809 56 845 b 182 764 146 845 182 809 l 182 440 l 121 440 l 121 769 b 101 789 121 780 112 789 b 81 769 90 789 81 780 l 81 71 b 101 51 81 60 90 51 b 121 71 112 51 121 60 l 121 400 l 182 400 "},"d":{"ha":203,"x_min":0,"x_max":0,"o":"m 101 -6 b 20 76 56 -6 20 31 l 20 764 b 101 845 20 809 56 845 b 121 843 108 845 115 844 l 121 970 l 182 970 l 182 76 b 101 -6 182 31 146 -6 m 81 71 b 101 51 81 60 90 51 b 121 71 112 51 121 60 l 121 769 b 101 789 121 780 112 789 b 81 769 90 789 81 780 "},"ð":{"ha":203,"x_min":0,"x_max":0,"o":"m 146 873 b 182 711 170 796 182 772 l 182 76 b 101 -6 182 31 146 -6 b 20 76 56 -6 20 31 l 20 742 b 101 823 20 787 56 823 l 86 873 l 41 873 l 41 920 l 72 920 l 57 970 l 116 970 l 131 920 l 167 920 l 167 873 m 121 747 b 101 767 121 758 112 767 b 81 747 90 767 81 758 l 81 71 b 101 51 81 60 90 51 b 121 71 112 51 121 60 "},"ď":{"ha":203,"x_min":0,"x_max":0,"o":"m 255 906 l 235 845 l 202 845 l 202 970 l 255 970 m 182 970 l 182 76 b 101 -6 182 31 146 -6 b 20 76 56 -6 20 31 l 20 764 b 101 845 20 809 56 845 b 121 842 108 845 115 844 l 121 970 m 121 769 b 101 789 121 780 112 789 b 81 769 90 789 81 780 l 81 71 b 101 51 81 60 90 51 b 121 71 112 51 121 60 "},"đ":{"ha":203,"x_min":0,"x_max":0,"o":"m 182 883 l 182 76 b 101 -6 182 31 146 -6 b 20 76 56 -6 20 31 l 20 764 b 101 845 20 809 56 845 b 121 842 108 845 115 844 l 121 883 l 81 883 l 81 930 l 121 930 l 121 970 l 182 970 l 182 930 l 202 930 l 202 883 m 121 769 b 101 789 121 780 112 789 b 81 769 90 789 81 780 l 81 71 b 101 51 81 60 90 51 b 121 71 112 51 121 60 "},"e":{"ha":203,"x_min":0,"x_max":0,"o":"m 101 845 b 182 764 146 845 182 809 l 182 392 l 81 392 l 81 71 b 101 51 81 60 90 51 b 121 71 112 51 121 60 l 121 353 l 182 353 l 182 76 b 101 -6 182 31 146 -6 b 20 76 56 -6 20 31 l 20 764 b 101 845 20 809 56 845 m 121 769 b 101 789 121 780 112 789 b 81 769 90 789 81 780 l 81 448 l 121 448 "},"é":{"ha":203,"x_min":0,"x_max":0,"o":"m 66 884 l 107 970 l 164 970 l 113 884 m 101 845 b 182 764 146 845 182 809 l 182 392 l 81 392 l 81 71 b 101 51 81 60 90 51 b 121 71 112 51 121 60 l 121 353 l 182 353 l 182 76 b 101 -6 182 31 146 -6 b 20 76 56 -6 20 31 l 20 764 b 101 845 20 809 56 845 m 121 769 b 101 789 121 780 112 789 b 81 769 90 789 81 780 l 81 448 l 121 448 "},"ě":{"ha":203,"x_min":0,"x_max":0,"o":"m 27 970 l 74 970 l 99 926 l 126 970 l 173 970 l 130 881 l 70 881 m 101 845 b 182 764 146 845 182 809 l 182 392 l 81 392 l 81 71 b 101 51 81 60 90 51 b 121 71 112 51 121 60 l 121 353 l 182 353 l 182 76 b 101 -6 182 31 146 -6 b 20 76 56 -6 20 31 l 20 764 b 101 845 20 809 56 845 m 121 769 b 101 789 121 780 112 789 b 81 769 90 789 81 780 l 81 448 l 121 448 "},"ê":{"ha":203,"x_min":0,"x_max":0,"o":"m 29 881 l 71 970 l 131 970 l 174 881 l 127 881 l 101 925 l 76 881 m 101 845 b 182 764 146 845 182 809 l 182 392 l 81 392 l 81 71 b 101 51 81 60 90 51 b 121 71 112 51 121 60 l 121 353 l 182 353 l 182 76 b 101 -6 182 31 146 -6 b 20 76 56 -6 20 31 l 20 764 b 101 845 20 809 56 845 m 121 769 b 101 789 121 780 112 789 b 81 769 90 789 81 780 l 81 448 l 121 448 "},"ë":{"ha":203,"x_min":0,"x_max":0,"o":"m 31 888 l 31 970 l 87 970 l 87 888 m 116 888 l 116 970 l 171 970 l 171 888 m 101 845 b 182 764 146 845 182 809 l 182 392 l 81 392 l 81 71 b 101 51 81 60 90 51 b 121 71 112 51 121 60 l 121 353 l 182 353 l 182 76 b 101 -6 182 31 146 -6 b 20 76 56 -6 20 31 l 20 764 b 101 845 20 809 56 845 m 121 769 b 101 789 121 780 112 789 b 81 769 90 789 81 780 l 81 448 l 121 448 "},"ė":{"ha":203,"x_min":0,"x_max":0,"o":"m 73 888 l 73 970 l 129 970 l 129 888 m 101 845 b 182 764 146 845 182 809 l 182 392 l 81 392 l 81 71 b 101 51 81 60 90 51 b 121 71 112 51 121 60 l 121 353 l 182 353 l 182 76 b 101 -6 182 31 146 -6 b 20 76 56 -6 20 31 l 20 764 b 101 845 20 809 56 845 m 121 769 b 101 789 121 780 112 789 b 81 769 90 789 81 780 l 81 448 l 121 448 "},"è":{"ha":203,"x_min":0,"x_max":0,"o":"m 38 970 l 95 970 l 136 884 l 89 884 m 101 845 b 182 764 146 845 182 809 l 182 392 l 81 392 l 81 71 b 101 51 81 60 90 51 b 121 71 112 51 121 60 l 121 353 l 182 353 l 182 76 b 101 -6 182 31 146 -6 b 20 76 56 -6 20 31 l 20 764 b 101 845 20 809 56 845 m 121 769 b 101 789 121 780 112 789 b 81 769 90 789 81 780 l 81 448 l 121 448 "},"ē":{"ha":203,"x_min":0,"x_max":0,"o":"m 31 888 l 31 940 l 171 940 l 171 888 m 101 845 b 182 764 146 845 182 809 l 182 392 l 81 392 l 81 71 b 101 51 81 60 90 51 b 121 71 112 51 121 60 l 121 353 l 182 353 l 182 76 b 101 -6 182 31 146 -6 b 20 76 56 -6 20 31 l 20 764 b 101 845 20 809 56 845 m 121 769 b 101 789 121 780 112 789 b 81 769 90 789 81 780 l 81 448 l 121 448 "},"ę":{"ha":203,"x_min":0,"x_max":0,"o":"m 182 76 b 175 43 182 64 179 53 b 133 -61 162 9 133 -42 b 169 -75 133 -81 157 -79 l 169 -132 b 94 -31 97 -147 57 -106 l 106 -6 b 101 -6 105 -6 103 -6 b 20 76 56 -6 20 31 l 20 764 b 101 845 20 809 56 845 b 182 764 146 845 182 809 l 182 392 l 81 392 l 81 71 b 101 51 81 60 90 51 b 121 71 112 51 121 60 l 121 352 l 182 352 m 121 448 l 121 769 b 101 789 121 780 112 789 b 81 769 90 789 81 780 l 81 448 "},"f":{"ha":203,"x_min":0,"x_max":0,"o":"m 81 899 b 101 919 81 910 90 919 b 121 899 112 919 121 910 l 121 488 l 182 488 l 182 894 b 101 975 182 939 146 975 b 20 894 56 975 20 939 l 20 0 l 81 0 l 81 392 l 182 392 l 182 448 l 81 448 "},"g":{"ha":203,"x_min":0,"x_max":0,"o":"m 155 825 b 202 840 168 834 185 840 l 202 784 b 182 764 191 784 182 775 l 182 312 b 101 231 182 267 146 231 l 95 231 b 76 211 84 231 76 222 b 95 191 76 200 84 191 l 101 191 b 182 110 146 191 182 155 l 182 -54 b 101 -135 182 -99 146 -135 b 20 -54 56 -135 20 -99 l 20 114 l 81 114 l 81 -60 b 101 -79 81 -71 90 -79 b 121 -60 112 -79 121 -71 l 121 110 l 121 115 b 101 135 121 126 112 135 l 95 135 b 20 211 54 135 20 169 b 38 261 20 230 27 247 b 20 312 27 275 20 293 l 20 764 b 101 845 20 809 56 845 b 155 825 122 845 141 837 m 121 769 b 101 789 121 780 112 789 b 81 769 90 789 81 780 l 81 307 b 101 287 81 296 90 287 b 121 307 112 287 121 296 "},"ğ":{"ha":203,"x_min":0,"x_max":0,"o":"m 103 884 b 31 956 63 884 31 916 l 31 970 l 80 970 l 80 956 b 103 932 80 944 91 932 b 127 956 116 932 127 944 l 127 970 l 177 970 l 177 956 b 103 884 177 916 143 884 m 155 825 b 202 840 168 834 185 840 l 202 784 b 182 764 191 784 182 775 l 182 312 b 101 231 182 267 146 231 l 95 231 b 76 211 84 231 76 222 b 95 191 76 200 84 191 l 101 191 b 182 110 146 191 182 155 l 182 -54 b 101 -135 182 -99 146 -135 b 20 -54 56 -135 20 -99 l 20 114 l 81 114 l 81 -60 b 101 -79 81 -71 90 -79 b 121 -60 112 -79 121 -71 l 121 110 l 121 115 b 101 135 121 126 112 135 l 95 135 b 20 211 54 135 20 169 b 38 261 20 230 27 247 b 20 312 27 275 20 293 l 20 764 b 101 845 20 809 56 845 b 155 825 122 845 141 837 m 121 769 b 101 789 121 780 112 789 b 81 769 90 789 81 780 l 81 307 b 101 287 81 296 90 287 b 121 307 112 287 121 296 "},"ģ":{"ha":203,"x_min":0,"x_max":0,"o":"m 75 881 l 75 946 l 94 1007 l 127 1007 l 127 881 m 155 825 b 202 840 168 834 185 840 l 202 784 b 182 764 191 784 182 775 l 182 312 b 101 231 182 267 146 231 l 95 231 b 76 211 84 231 76 222 b 95 191 76 200 84 191 l 101 191 b 182 110 146 191 182 155 l 182 -54 b 101 -135 182 -99 146 -135 b 20 -54 56 -135 20 -99 l 20 114 l 81 114 l 81 -60 b 101 -79 81 -71 90 -79 b 121 -60 112 -79 121 -71 l 121 109 l 121 115 b 101 135 121 126 112 135 l 95 135 b 20 211 54 135 20 169 b 38 261 20 230 27 247 b 20 312 27 275 20 293 l 20 764 b 101 845 20 809 56 845 b 155 825 122 845 141 837 m 121 769 b 101 789 121 780 112 789 b 81 769 90 789 81 780 l 81 307 b 101 287 81 296 90 287 b 121 307 112 287 121 296 "},"ġ":{"ha":203,"x_min":0,"x_max":0,"o":"m 76 888 l 76 970 l 132 970 l 132 888 m 155 825 b 202 840 168 834 185 840 l 202 784 b 182 764 191 784 182 775 l 182 312 b 101 231 182 267 146 231 l 95 231 b 76 211 84 231 76 222 b 95 191 76 200 84 191 l 101 191 b 182 110 146 191 182 155 l 182 -54 b 101 -135 182 -99 146 -135 b 20 -54 56 -135 20 -99 l 20 114 l 81 114 l 81 -60 b 101 -79 81 -71 90 -79 b 121 -60 112 -79 121 -71 l 121 110 l 121 115 b 101 135 121 126 112 135 l 95 135 b 20 211 54 135 20 169 b 38 261 20 230 27 247 b 20 312 27 275 20 293 l 20 764 b 101 845 20 809 56 845 b 155 825 122 845 141 837 m 121 769 b 101 789 121 780 112 789 b 81 769 90 789 81 780 l 81 307 b 101 287 81 296 90 287 b 121 307 112 287 121 296 "},"h":{"ha":203,"x_min":0,"x_max":0,"o":"m 20 970 l 81 970 l 81 842 b 101 845 88 844 94 845 b 182 764 146 845 182 809 l 182 0 l 121 0 l 121 769 b 101 789 121 780 112 789 b 81 769 90 789 81 780 l 81 0 l 20 0 "},"ħ":{"ha":203,"x_min":0,"x_max":0,"o":"m 101 845 b 182 764 146 845 182 809 l 182 0 l 121 0 l 121 769 b 101 789 121 780 112 789 b 81 769 90 789 81 780 l 81 0 l 20 0 l 20 884 l 0 884 l 0 923 l 20 923 l 20 970 l 81 970 l 81 923 l 121 923 l 121 884 l 81 884 l 81 842 b 101 845 88 844 94 845 "},"i":{"ha":101,"x_min":0,"x_max":0,"o":"m 81 880 l 20 880 l 20 970 l 81 970 m 81 840 l 81 0 l 20 0 l 20 840 "},"ı":{"ha":101,"x_min":0,"x_max":0,"o":"m 81 840 l 81 0 l 20 0 l 20 840 "},"í":{"ha":101,"x_min":0,"x_max":0,"o":"m 19 884 l 61 970 l 117 970 l 66 884 m 81 840 l 81 0 l 20 0 l 20 840 "},"î":{"ha":101,"x_min":0,"x_max":0,"o":"m -18 881 l 25 970 l 85 970 l 128 881 l 80 881 l 54 925 l 29 881 m 81 840 l 81 0 l 20 0 l 20 840 "},"ï":{"ha":101,"x_min":0,"x_max":0,"o":"m -15 888 l -15 970 l 40 970 l 40 888 m 69 888 l 69 970 l 125 970 l 125 888 m 81 840 l 81 0 l 20 0 l 20 840 "},"ì":{"ha":101,"x_min":0,"x_max":0,"o":"m -9 970 l 48 970 l 90 884 l 43 884 m 81 840 l 81 0 l 20 0 l 20 840 "},"ĳ":{"ha":203,"x_min":0,"x_max":0,"o":"m 81 880 l 20 880 l 20 970 l 81 970 m 182 880 l 121 880 l 121 970 l 182 970 m 81 840 l 81 0 l 20 0 l 20 840 m 182 -54 b 101 -135 182 -99 146 -135 l 101 -79 b 121 -60 112 -79 121 -71 l 121 840 l 182 840 "},"ī":{"ha":101,"x_min":0,"x_max":0,"o":"m -16 888 l -16 940 l 125 940 l 125 888 m 81 840 l 81 0 l 20 0 l 20 840 "},"į":{"ha":101,"x_min":0,"x_max":0,"o":"m 20 880 l 20 970 l 81 970 l 81 880 m 59 -61 b 94 -75 59 -81 82 -79 l 94 -132 b 19 -31 22 -147 -18 -106 l 34 0 l 20 0 l 20 840 l 81 840 l 81 0 b 59 -61 70 -25 59 -50 "},"j":{"ha":101,"x_min":0,"x_max":0,"o":"m 81 880 l 20 880 l 20 970 l 81 970 m 81 -54 b 0 -135 81 -99 45 -135 l 0 -79 b 20 -60 11 -79 20 -71 l 20 840 l 81 840 "},"k":{"ha":203,"x_min":0,"x_max":0,"o":"m 182 470 b 165 420 182 451 176 433 b 182 369 176 406 182 388 l 182 0 l 121 0 l 121 372 b 101 392 121 383 112 392 l 81 392 l 81 0 l 20 0 l 20 970 l 81 970 l 81 448 l 101 448 b 121 468 112 448 121 457 l 121 840 l 182 840 "},"ķ":{"ha":203,"x_min":0,"x_max":0,"o":"m 182 470 b 165 420 182 451 176 433 b 182 369 176 406 182 388 l 182 0 l 121 0 l 121 372 b 101 392 121 383 112 392 l 81 392 l 81 0 l 20 0 l 20 970 l 81 970 l 81 448 l 101 448 b 121 468 112 448 121 457 l 121 840 l 182 840 m 127 -36 l 127 -100 l 108 -161 l 75 -161 l 75 -36 "},"l":{"ha":101,"x_min":0,"x_max":0,"o":"m 81 0 l 20 0 l 20 981 l 81 981 "},"ĺ":{"ha":101,"x_min":0,"x_max":0,"o":"m 19 1013 l 60 1099 l 117 1099 l 66 1013 m 81 0 l 20 0 l 20 981 l 81 981 "},"ľ":{"ha":101,"x_min":0,"x_max":0,"o":"m 154 916 l 134 855 l 101 855 l 101 981 l 154 981 m 81 981 l 81 0 l 20 0 l 20 981 "},"ļ":{"ha":101,"x_min":0,"x_max":0,"o":"m 81 0 l 20 0 l 20 981 l 81 981 m 77 -36 l 77 -100 l 57 -161 l 24 -161 l 24 -36 "},"ŀ":{"ha":151,"x_min":0,"x_max":0,"o":"m 81 981 l 81 0 l 20 0 l 20 981 m 151 441 l 101 441 l 101 529 l 151 529 "},"ł":{"ha":101,"x_min":0,"x_max":0,"o":"m 81 475 l 81 0 l 20 0 l 20 448 l 0 439 l 0 486 l 20 495 l 20 980 l 81 980 l 81 522 l 101 531 l 101 484 "},"m":{"ha":303,"x_min":0,"x_max":0,"o":"m 202 845 b 283 764 247 845 283 809 l 283 0 l 222 0 l 222 769 b 202 789 222 780 213 789 b 182 769 191 789 182 780 l 182 0 l 121 0 l 121 769 b 101 789 121 780 112 789 b 81 769 90 789 81 780 l 81 0 l 20 0 l 20 764 b 101 845 20 809 56 845 b 152 827 120 845 138 838 b 202 845 166 838 183 845 "},"n":{"ha":203,"x_min":0,"x_max":0,"o":"m 101 845 b 182 764 146 845 182 809 l 182 0 l 121 0 l 121 769 b 101 789 121 780 112 789 b 81 769 90 789 81 780 l 81 0 l 20 0 l 20 764 b 101 845 20 809 56 845 "},"ń":{"ha":203,"x_min":0,"x_max":0,"o":"m 66 884 l 107 970 l 164 970 l 113 884 m 101 845 b 182 764 146 845 182 809 l 182 0 l 121 0 l 121 769 b 101 789 121 780 112 789 b 81 769 90 789 81 780 l 81 0 l 20 0 l 20 764 b 101 845 20 809 56 845 "},"ň":{"ha":203,"x_min":0,"x_max":0,"o":"m 27 970 l 74 970 l 99 926 l 126 970 l 173 970 l 130 881 l 70 881 m 101 845 b 182 764 146 845 182 809 l 182 0 l 121 0 l 121 769 b 101 789 121 780 112 789 b 81 769 90 789 81 780 l 81 0 l 20 0 l 20 764 b 101 845 20 809 56 845 "},"ņ":{"ha":203,"x_min":0,"x_max":0,"o":"m 101 845 b 182 764 146 845 182 809 l 182 0 l 121 0 l 121 769 b 101 789 121 780 112 789 b 81 769 90 789 81 780 l 81 0 l 20 0 l 20 764 b 101 845 20 809 56 845 m 127 -36 l 127 -100 l 108 -161 l 75 -161 l 75 -36 "},"ŋ":{"ha":203,"x_min":0,"x_max":0,"o":"m 101 845 b 182 764 146 845 182 809 l 182 -54 b 101 -136 182 -99 146 -136 l 101 -79 b 121 -60 112 -79 121 -71 l 121 769 b 101 789 121 780 112 789 b 81 769 90 789 81 780 l 81 0 l 20 0 l 20 764 b 101 845 20 809 56 845 "},"ñ":{"ha":203,"x_min":0,"x_max":0,"o":"m 20 895 b 109 949 15 960 60 992 b 137 964 130 932 138 946 l 181 964 b 92 910 187 901 141 869 b 65 895 72 928 63 914 m 101 845 b 182 764 146 845 182 809 l 182 0 l 121 0 l 121 769 b 101 789 121 780 112 789 b 81 769 90 789 81 780 l 81 0 l 20 0 l 20 764 b 101 845 20 809 56 845 "},"o":{"ha":203,"x_min":0,"x_max":0,"o":"m 101 845 b 182 764 146 845 182 809 l 182 76 b 101 -6 182 31 146 -6 b 20 76 56 -6 20 31 l 20 764 b 101 845 20 809 56 845 m 121 769 b 101 789 121 780 112 789 b 81 769 90 789 81 780 l 81 71 b 101 51 81 60 90 51 b 121 71 112 51 121 60 "},"ó":{"ha":203,"x_min":0,"x_max":0,"o":"m 66 884 l 107 970 l 164 970 l 113 884 m 101 845 b 182 764 146 845 182 809 l 182 76 b 101 -6 182 31 146 -6 b 20 76 56 -6 20 31 l 20 764 b 101 845 20 809 56 845 m 121 769 b 101 789 121 780 112 789 b 81 769 90 789 81 780 l 81 71 b 101 51 81 60 90 51 b 121 71 112 51 121 60 "},"ô":{"ha":203,"x_min":0,"x_max":0,"o":"m 29 881 l 71 970 l 131 970 l 174 881 l 127 881 l 101 925 l 76 881 m 101 845 b 182 764 146 845 182 809 l 182 76 b 101 -6 182 31 146 -6 b 20 76 56 -6 20 31 l 20 764 b 101 845 20 809 56 845 m 121 769 b 101 789 121 780 112 789 b 81 769 90 789 81 780 l 81 71 b 101 51 81 60 90 51 b 121 71 112 51 121 60 "},"ö":{"ha":203,"x_min":0,"x_max":0,"o":"m 31 888 l 31 970 l 87 970 l 87 888 m 116 888 l 116 970 l 171 970 l 171 888 m 101 845 b 182 764 146 845 182 809 l 182 76 b 101 -6 182 31 146 -6 b 20 76 56 -6 20 31 l 20 764 b 101 845 20 809 56 845 m 121 769 b 101 789 121 780 112 789 b 81 769 90 789 81 780 l 81 71 b 101 51 81 60 90 51 b 121 71 112 51 121 60 "},"ò":{"ha":203,"x_min":0,"x_max":0,"o":"m 38 970 l 95 970 l 136 884 l 89 884 m 101 845 b 182 764 146 845 182 809 l 182 76 b 101 -6 182 31 146 -6 b 20 76 56 -6 20 31 l 20 764 b 101 845 20 809 56 845 m 121 769 b 101 789 121 780 112 789 b 81 769 90 789 81 780 l 81 71 b 101 51 81 60 90 51 b 121 71 112 51 121 60 "},"ő":{"ha":203,"x_min":0,"x_max":0,"o":"m 30 883 l 71 969 l 128 969 l 77 883 m 164 969 l 221 969 l 170 883 l 123 883 m 101 845 b 182 764 146 845 182 809 l 182 76 b 101 -6 182 31 146 -6 b 20 76 56 -6 20 31 l 20 764 b 101 845 20 809 56 845 m 121 769 b 101 789 121 780 112 789 b 81 769 90 789 81 780 l 81 71 b 101 51 81 60 90 51 b 121 71 112 51 121 60 "},"ō":{"ha":203,"x_min":0,"x_max":0,"o":"m 31 888 l 31 940 l 171 940 l 171 888 m 101 845 b 182 764 146 845 182 809 l 182 76 b 101 -6 182 31 146 -6 b 20 76 56 -6 20 31 l 20 764 b 101 845 20 809 56 845 m 121 769 b 101 789 121 780 112 789 b 81 769 90 789 81 780 l 81 71 b 101 51 81 60 90 51 b 121 71 112 51 121 60 "},"ø":{"ha":203,"x_min":0,"x_max":0,"o":"m 165 814 b 182 764 176 800 182 783 l 182 76 b 101 -6 182 31 146 -6 b 61 5 87 -6 73 -1 l 55 -40 l 27 -40 l 36 28 b 20 76 26 41 20 58 l 20 764 b 101 845 20 809 56 845 b 139 836 115 845 128 842 l 146 894 l 175 894 m 121 695 l 121 769 b 101 789 121 780 112 789 b 81 769 90 789 81 780 l 81 385 m 101 51 b 121 71 112 51 121 60 l 121 471 l 81 163 l 81 71 b 101 51 81 60 90 51 "},"õ":{"ha":203,"x_min":0,"x_max":0,"o":"m 20 895 b 109 949 15 960 60 992 b 137 964 130 932 138 946 l 181 964 b 92 910 187 901 141 869 b 65 895 72 928 63 914 m 101 845 b 182 764 146 845 182 809 l 182 76 b 101 -6 182 31 146 -6 b 20 76 56 -6 20 31 l 20 764 b 101 845 20 809 56 845 m 121 769 b 101 789 121 780 112 789 b 81 769 90 789 81 780 l 81 71 b 101 51 81 60 90 51 b 121 71 112 51 121 60 "},"œ":{"ha":303,"x_min":0,"x_max":0,"o":"m 202 845 b 283 764 247 845 283 809 l 283 392 l 182 392 l 182 71 b 202 51 182 60 191 51 b 222 71 213 51 222 60 l 222 352 l 283 352 l 283 76 b 202 -6 283 31 247 -6 b 152 12 183 -6 166 1 b 101 -6 138 1 120 -6 b 20 76 56 -6 20 31 l 20 764 b 101 845 20 809 56 845 b 152 827 120 845 138 838 b 202 845 166 838 183 845 m 121 769 b 101 789 121 780 112 789 b 81 769 90 789 81 780 l 81 71 b 101 51 81 60 90 51 b 121 71 112 51 121 60 m 222 769 b 202 789 222 780 213 789 b 182 769 191 789 182 780 l 182 448 l 222 448 "},"p":{"ha":203,"x_min":0,"x_max":0,"o":"m 101 845 b 182 764 146 845 182 809 l 182 76 b 101 -6 182 31 146 -6 b 81 -3 94 -6 88 -4 l 81 -131 l 20 -131 l 20 764 b 101 845 20 809 56 845 m 121 769 b 101 789 121 780 112 789 b 81 769 90 789 81 780 l 81 71 b 101 51 81 60 90 51 b 121 71 112 51 121 60 "},"þ":{"ha":203,"x_min":0,"x_max":0,"o":"m 101 840 b 182 759 146 840 182 803 l 182 81 b 101 0 182 37 146 0 l 81 0 l 81 -125 l 20 -125 l 20 974 l 81 974 l 81 840 m 121 764 b 101 784 121 775 112 784 l 81 784 l 81 56 l 101 56 b 121 76 112 56 121 65 "},"q":{"ha":203,"x_min":0,"x_max":0,"o":"m 20 764 b 101 845 20 809 56 845 b 182 764 146 845 182 809 l 182 -131 l 121 -131 l 121 -3 b 101 -6 115 -4 108 -6 b 20 76 56 -6 20 31 m 81 71 b 101 51 81 60 90 51 b 121 71 112 51 121 60 l 121 769 b 101 789 121 780 112 789 b 81 769 90 789 81 780 "},"r":{"ha":203,"x_min":0,"x_max":0,"o":"m 101 845 b 182 764 146 845 182 809 l 182 392 l 121 392 l 121 769 b 101 789 121 780 112 789 b 81 769 90 789 81 780 l 81 0 l 20 0 l 20 764 b 101 845 20 809 56 845 "},"ŕ":{"ha":203,"x_min":0,"x_max":0,"o":"m 66 884 l 107 970 l 164 970 l 113 884 m 101 845 b 182 764 146 845 182 809 l 182 392 l 121 392 l 121 769 b 101 789 121 780 112 789 b 81 769 90 789 81 780 l 81 0 l 20 0 l 20 764 b 101 845 20 809 56 845 "},"ř":{"ha":203,"x_min":0,"x_max":0,"o":"m 27 970 l 74 970 l 99 926 l 126 970 l 173 970 l 130 881 l 70 881 m 101 845 b 182 764 146 845 182 809 l 182 392 l 121 392 l 121 769 b 101 789 121 780 112 789 b 81 769 90 789 81 780 l 81 0 l 20 0 l 20 764 b 101 845 20 809 56 845 "},"ŗ":{"ha":203,"x_min":0,"x_max":0,"o":"m 101 845 b 182 764 146 845 182 809 l 182 392 l 121 392 l 121 769 b 101 789 121 780 112 789 b 81 769 90 789 81 780 l 81 0 l 20 0 l 20 764 b 101 845 20 809 56 845 m 77 -36 l 77 -100 l 57 -161 l 24 -161 l 24 -36 "},"s":{"ha":203,"x_min":0,"x_max":0,"o":"m 121 769 b 101 789 121 780 112 789 b 81 769 90 789 81 780 l 81 468 b 101 448 81 457 90 448 b 182 367 146 448 182 412 l 182 76 b 101 -6 182 31 146 -6 b 20 76 56 -6 20 31 l 20 370 l 81 370 l 81 71 b 101 51 81 60 90 51 b 121 71 112 51 121 60 l 121 372 b 101 392 121 383 112 392 b 20 473 56 392 20 428 l 20 764 b 101 845 20 809 56 845 b 182 764 146 845 182 809 l 182 469 l 121 469 "},"ś":{"ha":203,"x_min":0,"x_max":0,"o":"m 66 884 l 107 970 l 164 970 l 113 884 m 121 769 b 101 789 121 780 112 789 b 81 769 90 789 81 780 l 81 468 b 101 448 81 457 90 448 b 182 367 146 448 182 412 l 182 76 b 101 -6 182 31 146 -6 b 20 76 56 -6 20 31 l 20 370 l 81 370 l 81 71 b 101 51 81 60 90 51 b 121 71 112 51 121 60 l 121 372 b 101 392 121 383 112 392 b 20 473 56 392 20 428 l 20 764 b 101 845 20 809 56 845 b 182 764 146 845 182 809 l 182 469 l 121 469 "},"š":{"ha":203,"x_min":0,"x_max":0,"o":"m 27 970 l 74 970 l 99 926 l 126 970 l 173 970 l 130 881 l 70 881 m 121 769 b 101 789 121 780 112 789 b 81 769 90 789 81 780 l 81 468 b 101 448 81 457 90 448 b 182 367 146 448 182 412 l 182 76 b 101 -6 182 31 146 -6 b 20 76 56 -6 20 31 l 20 370 l 81 370 l 81 71 b 101 51 81 60 90 51 b 121 71 112 51 121 60 l 121 372 b 101 392 121 383 112 392 b 20 473 56 392 20 428 l 20 764 b 101 845 20 809 56 845 b 182 764 146 845 182 809 l 182 469 l 121 469 "},"ş":{"ha":203,"x_min":0,"x_max":0,"o":"m 121 769 b 101 788 121 780 112 788 b 81 769 90 788 81 780 l 81 467 b 101 448 81 457 90 448 b 182 366 146 448 182 411 l 182 76 b 118 -4 182 37 155 4 l 117 -24 b 100 -135 196 -32 185 -139 b 43 -129 81 -135 63 -132 l 48 -92 b 97 -97 64 -96 79 -97 b 102 -53 129 -99 133 -54 b 72 -54 91 -53 82 -53 l 76 -1 b 20 76 44 9 20 39 l 20 370 l 81 370 l 81 70 b 101 51 81 59 90 51 b 121 70 112 51 121 59 l 121 372 b 101 391 121 382 112 391 b 20 473 56 391 20 428 l 20 763 b 101 845 20 808 56 845 b 182 763 146 845 182 808 l 182 469 l 121 469 "},"ș":{"ha":203,"x_min":0,"x_max":0,"o":"m 121 769 b 101 789 121 780 112 789 b 81 769 90 789 81 780 l 81 468 b 101 448 81 457 90 448 b 182 367 146 448 182 411 l 182 76 b 101 -6 182 31 146 -6 b 20 76 56 -6 20 31 l 20 370 l 81 370 l 81 71 b 101 51 81 60 90 51 b 121 71 112 51 121 60 l 121 372 b 101 392 121 383 112 392 b 20 473 56 392 20 428 l 20 764 b 101 845 20 809 56 845 b 182 764 146 845 182 809 l 182 469 l 121 469 m 127 -36 l 127 -100 l 108 -161 l 75 -161 l 75 -36 "},"ß":{"ha":203,"x_min":0,"x_max":0,"o":"m 182 535 b 165 485 182 516 176 499 b 182 434 176 471 182 453 l 182 81 b 101 0 182 36 146 0 l 101 56 b 121 76 112 56 121 65 l 121 437 b 101 457 121 448 112 457 l 101 513 b 121 533 112 513 121 522 l 121 899 b 101 919 121 910 112 919 b 81 899 90 919 81 910 l 81 0 l 20 0 l 20 894 b 101 975 20 939 56 975 b 182 894 146 975 182 939 "},"t":{"ha":203,"x_min":0,"x_max":0,"o":"m 81 71 b 101 51 81 60 90 51 b 121 71 112 51 121 60 l 121 744 l 182 744 l 182 76 b 101 -6 182 31 146 -6 b 20 76 56 -6 20 31 l 20 970 l 81 970 l 81 840 l 182 840 l 182 784 l 81 784 "},"ŧ":{"ha":203,"x_min":0,"x_max":0,"o":"m 81 448 l 101 448 l 101 401 l 81 401 l 81 71 b 101 51 81 60 90 51 b 121 71 112 51 121 60 l 121 744 l 182 744 l 182 76 b 101 -6 182 31 146 -6 b 20 76 56 -6 20 31 l 20 401 l 0 401 l 0 448 l 20 448 l 20 970 l 81 970 l 81 840 l 182 840 l 182 784 l 81 784 "},"ť":{"ha":203,"x_min":0,"x_max":0,"o":"m 192 970 l 192 906 l 172 845 l 139 845 l 139 970 m 182 744 l 182 76 b 101 -6 182 31 146 -6 b 20 76 56 -6 20 31 l 20 970 l 81 970 l 81 840 l 120 840 l 120 784 l 81 784 l 81 71 b 101 51 81 60 90 51 b 121 71 112 51 121 60 l 121 744 "},"ţ":{"ha":203,"x_min":0,"x_max":0,"o":"m 81 71 b 101 51 81 60 90 51 b 121 71 112 51 121 60 l 121 744 l 182 744 l 182 76 b 118 -4 182 37 155 4 l 117 -24 b 100 -135 196 -32 185 -139 b 43 -129 81 -135 63 -132 l 48 -92 b 97 -97 64 -96 79 -97 b 102 -53 129 -99 133 -54 b 72 -54 91 -53 82 -53 l 76 -1 b 20 76 44 9 20 40 l 20 970 l 81 970 l 81 840 l 182 840 l 182 784 l 81 784 "},"ț":{"ha":203,"x_min":0,"x_max":0,"o":"m 81 71 b 101 51 81 60 90 51 b 121 71 112 51 121 60 l 121 744 l 182 744 l 182 76 b 101 -6 182 31 146 -6 b 20 76 56 -6 20 31 l 20 970 l 81 970 l 81 840 l 182 840 l 182 784 l 81 784 m 127 -36 l 127 -100 l 108 -161 l 75 -161 l 75 -36 "},"u":{"ha":203,"x_min":0,"x_max":0,"o":"m 101 -6 b 20 76 56 -6 20 31 l 20 840 l 81 840 l 81 71 b 101 51 81 60 90 51 b 121 71 112 51 121 60 l 121 840 l 182 840 l 182 76 b 101 -6 182 31 146 -6 "},"ú":{"ha":203,"x_min":0,"x_max":0,"o":"m 66 884 l 107 970 l 164 970 l 113 884 m 101 -6 b 20 76 56 -6 20 31 l 20 840 l 81 840 l 81 71 b 101 51 81 60 90 51 b 121 71 112 51 121 60 l 121 840 l 182 840 l 182 76 b 101 -6 182 31 146 -6 "},"û":{"ha":203,"x_min":0,"x_max":0,"o":"m 29 881 l 71 970 l 131 970 l 174 881 l 127 881 l 101 925 l 76 881 m 101 -6 b 20 76 56 -6 20 31 l 20 840 l 81 840 l 81 71 b 101 51 81 60 90 51 b 121 71 112 51 121 60 l 121 840 l 182 840 l 182 76 b 101 -6 182 31 146 -6 "},"ü":{"ha":203,"x_min":0,"x_max":0,"o":"m 31 888 l 31 970 l 87 970 l 87 888 m 116 888 l 116 970 l 171 970 l 171 888 m 101 -6 b 20 76 56 -6 20 31 l 20 840 l 81 840 l 81 71 b 101 51 81 60 90 51 b 121 71 112 51 121 60 l 121 840 l 182 840 l 182 76 b 101 -6 182 31 146 -6 "},"ù":{"ha":203,"x_min":0,"x_max":0,"o":"m 38 970 l 95 970 l 136 884 l 89 884 m 101 -6 b 20 76 56 -6 20 31 l 20 840 l 81 840 l 81 71 b 101 51 81 60 90 51 b 121 71 112 51 121 60 l 121 840 l 182 840 l 182 76 b 101 -6 182 31 146 -6 "},"ű":{"ha":203,"x_min":0,"x_max":0,"o":"m 30 883 l 71 969 l 128 969 l 77 883 m 164 969 l 221 969 l 170 883 l 123 883 m 101 -6 b 20 76 56 -6 20 31 l 20 840 l 81 840 l 81 71 b 101 51 81 60 90 51 b 121 71 112 51 121 60 l 121 840 l 182 840 l 182 76 b 101 -6 182 31 146 -6 "},"ū":{"ha":203,"x_min":0,"x_max":0,"o":"m 31 888 l 31 940 l 171 940 l 171 888 m 101 -6 b 20 76 56 -6 20 31 l 20 840 l 81 840 l 81 71 b 101 51 81 60 90 51 b 121 71 112 51 121 60 l 121 840 l 182 840 l 182 76 b 101 -6 182 31 146 -6 "},"ų":{"ha":203,"x_min":0,"x_max":0,"o":"m 182 76 b 175 43 182 64 179 53 b 133 -61 162 9 133 -42 b 169 -75 133 -81 157 -79 l 169 -132 b 94 -31 97 -147 57 -106 l 106 -6 b 101 -6 105 -6 103 -6 b 20 76 56 -6 20 31 l 20 840 l 81 840 l 81 71 b 101 51 81 60 90 51 b 121 71 112 51 121 60 l 121 840 l 182 840 "},"ů":{"ha":203,"x_min":0,"x_max":0,"o":"m 161 920 b 41 920 161 840 41 840 b 161 920 41 999 161 999 m 127 920 b 77 920 127 953 77 953 b 127 920 77 885 127 885 m 101 -6 b 20 76 56 -6 20 31 l 20 840 l 81 840 l 81 71 b 101 51 81 60 90 51 b 121 71 112 51 121 60 l 121 840 l 182 840 l 182 76 b 101 -6 182 31 146 -6 "},"v":{"ha":203,"x_min":0,"x_max":0,"o":"m 81 56 l 101 56 b 121 76 112 56 121 65 l 121 840 l 182 840 l 182 81 b 101 0 182 36 146 0 l 20 0 l 20 840 l 81 840 "},"w":{"ha":303,"x_min":0,"x_max":0,"o":"m 101 -6 b 20 76 56 -6 20 31 l 20 840 l 81 840 l 81 71 b 101 51 81 60 90 51 b 121 71 112 51 121 60 l 121 840 l 182 840 l 182 71 b 202 51 182 60 191 51 b 222 71 213 51 222 60 l 222 840 l 283 840 l 283 76 b 202 -6 283 31 247 -6 b 152 12 183 -6 166 1 b 101 -6 138 1 120 -6 "},"ẃ":{"ha":303,"x_min":0,"x_max":0,"o":"m 117 884 l 159 970 l 216 970 l 165 884 m 101 -6 b 20 76 56 -6 20 31 l 20 840 l 81 840 l 81 71 b 101 51 81 60 90 51 b 121 71 112 51 121 60 l 121 840 l 182 840 l 182 71 b 202 51 182 60 191 51 b 222 71 213 51 222 60 l 222 840 l 283 840 l 283 76 b 202 -6 283 31 247 -6 b 152 12 183 -6 166 1 b 101 -6 138 1 120 -6 "},"ŵ":{"ha":303,"x_min":0,"x_max":0,"o":"m 80 881 l 123 970 l 183 970 l 226 881 l 179 881 l 152 925 l 127 881 m 101 -6 b 20 76 56 -6 20 31 l 20 840 l 81 840 l 81 71 b 101 51 81 60 90 51 b 121 71 112 51 121 60 l 121 840 l 182 840 l 182 71 b 202 51 182 60 191 51 b 222 71 213 51 222 60 l 222 840 l 283 840 l 283 76 b 202 -6 283 31 247 -6 b 152 12 183 -6 166 1 b 101 -6 138 1 120 -6 "},"ẅ":{"ha":303,"x_min":0,"x_max":0,"o":"m 83 888 l 83 970 l 138 970 l 138 888 m 167 888 l 167 970 l 223 970 l 223 888 m 101 -6 b 20 76 56 -6 20 31 l 20 840 l 81 840 l 81 71 b 101 51 81 60 90 51 b 121 71 112 51 121 60 l 121 840 l 182 840 l 182 71 b 202 51 182 60 191 51 b 222 71 213 51 222 60 l 222 840 l 283 840 l 283 76 b 202 -6 283 31 247 -6 b 152 12 183 -6 166 1 b 101 -6 138 1 120 -6 "},"ẁ":{"ha":303,"x_min":0,"x_max":0,"o":"m 90 970 l 147 970 l 188 884 l 141 884 m 101 -6 b 20 76 56 -6 20 31 l 20 840 l 81 840 l 81 71 b 101 51 81 60 90 51 b 121 71 112 51 121 60 l 121 840 l 182 840 l 182 71 b 202 51 182 60 191 51 b 222 71 213 51 222 60 l 222 840 l 283 840 l 283 76 b 202 -6 283 31 247 -6 b 152 12 183 -6 166 1 b 101 -6 138 1 120 -6 "},"x":{"ha":203,"x_min":0,"x_max":0,"o":"m 182 471 b 165 420 182 451 176 434 b 182 370 176 406 182 389 l 182 0 l 121 0 l 121 372 b 101 392 121 383 112 392 b 81 372 90 392 81 383 l 81 0 l 20 0 l 20 370 b 38 420 20 389 27 406 b 20 471 27 434 20 451 l 20 840 l 81 840 l 81 468 b 101 448 81 457 90 448 b 121 468 112 448 121 457 l 121 840 l 182 840 "},"y":{"ha":203,"x_min":0,"x_max":0,"o":"m 182 -131 l 121 -131 l 121 -3 b 101 -6 115 -4 108 -6 b 20 76 56 -6 20 31 l 20 840 l 81 840 l 81 71 b 101 51 81 60 90 51 b 121 71 112 51 121 60 l 121 840 l 182 840 "},"ý":{"ha":203,"x_min":0,"x_max":0,"o":"m 66 884 l 107 970 l 164 970 l 113 884 m 182 -131 l 121 -131 l 121 -3 b 101 -6 115 -4 108 -6 b 20 76 56 -6 20 31 l 20 840 l 81 840 l 81 71 b 101 51 81 60 90 51 b 121 71 112 51 121 60 l 121 840 l 182 840 "},"ŷ":{"ha":203,"x_min":0,"x_max":0,"o":"m 29 881 l 71 970 l 131 970 l 174 881 l 127 881 l 101 925 l 76 881 m 182 -131 l 121 -131 l 121 -3 b 101 -6 115 -4 108 -6 b 20 76 56 -6 20 31 l 20 840 l 81 840 l 81 71 b 101 51 81 60 90 51 b 121 71 112 51 121 60 l 121 840 l 182 840 "},"ÿ":{"ha":203,"x_min":0,"x_max":0,"o":"m 31 888 l 31 970 l 87 970 l 87 888 m 116 888 l 116 970 l 171 970 l 171 888 m 182 -131 l 121 -131 l 121 -3 b 101 -6 115 -4 108 -6 b 20 76 56 -6 20 31 l 20 840 l 81 840 l 81 71 b 101 51 81 60 90 51 b 121 71 112 51 121 60 l 121 840 l 182 840 "},"ỳ":{"ha":203,"x_min":0,"x_max":0,"o":"m 38 970 l 95 970 l 136 884 l 89 884 m 182 -131 l 121 -131 l 121 -3 b 101 -6 115 -4 108 -6 b 20 76 56 -6 20 31 l 20 840 l 81 840 l 81 71 b 101 51 81 60 90 51 b 121 71 112 51 121 60 l 121 840 l 182 840 "},"z":{"ha":203,"x_min":0,"x_max":0,"o":"m 81 784 l 81 469 l 20 469 l 20 840 l 182 840 l 182 473 b 101 392 182 429 146 392 b 81 372 90 392 81 383 l 81 56 l 121 56 l 121 370 l 182 370 l 182 0 l 20 0 l 20 367 b 101 448 20 412 56 448 b 121 468 112 448 121 457 l 121 784 "},"ź":{"ha":203,"x_min":0,"x_max":0,"o":"m 66 884 l 107 970 l 164 970 l 113 884 m 81 784 l 81 469 l 20 469 l 20 840 l 182 840 l 182 473 b 101 392 182 429 146 392 b 81 372 90 392 81 383 l 81 56 l 121 56 l 121 370 l 182 370 l 182 0 l 20 0 l 20 367 b 101 448 20 412 56 448 b 121 468 112 448 121 457 l 121 784 "},"ž":{"ha":203,"x_min":0,"x_max":0,"o":"m 27 970 l 74 970 l 99 926 l 126 970 l 173 970 l 130 881 l 70 881 m 81 784 l 81 469 l 20 469 l 20 840 l 182 840 l 182 473 b 101 392 182 429 146 392 b 81 372 90 392 81 383 l 81 56 l 121 56 l 121 370 l 182 370 l 182 0 l 20 0 l 20 367 b 101 448 20 412 56 448 b 121 468 112 448 121 457 l 121 784 "},"ż":{"ha":203,"x_min":0,"x_max":0,"o":"m 73 888 l 73 970 l 129 970 l 129 888 m 81 784 l 81 469 l 20 469 l 20 840 l 182 840 l 182 473 b 101 392 182 429 146 392 b 81 372 90 392 81 383 l 81 56 l 121 56 l 121 370 l 182 370 l 182 0 l 20 0 l 20 367 b 101 448 20 412 56 448 b 121 468 112 448 121 457 l 121 784 "},"\\":{"ha":158,"x_min":0,"x_max":0,"o":"m 101 -131 l 0 970 l 57 970 l 158 -131 "},"•":{"ha":121,"x_min":0,"x_max":0,"o":"m 100 383 l 20 383 l 20 524 l 100 524 "},":":{"ha":92,"x_min":0,"x_max":0,"o":"m 72 376 l 20 376 l 20 466 l 72 466 m 72 91 l 72 0 l 20 0 l 20 91 "},",":{"ha":92,"x_min":0,"x_max":0,"o":"m 72 91 l 72 0 l 53 -61 l 20 -61 l 20 91 "},"…":{"ha":238,"x_min":0,"x_max":0,"o":"m 72 91 l 72 0 l 20 0 l 20 91 m 145 91 l 145 0 l 92 0 l 92 91 m 217 0 l 165 0 l 165 91 l 217 91 "},"!":{"ha":101,"x_min":0,"x_max":0,"o":"m 20 130 l 20 970 l 81 970 l 81 130 m 20 91 l 81 91 l 81 0 l 20 0 "},"¡":{"ha":101,"x_min":0,"x_max":0,"o":"m 81 749 l 20 749 l 20 840 l 81 840 m 81 710 l 81 -131 l 20 -131 l 20 710 "},"#":{"ha":254,"x_min":0,"x_max":0,"o":"m 254 571 l 254 515 l 207 515 l 201 455 l 254 455 l 254 399 l 195 399 l 153 0 l 96 0 l 138 399 l 98 399 l 57 0 l 0 0 l 42 399 l 0 399 l 0 455 l 47 455 l 54 515 l 0 515 l 0 571 l 60 571 l 101 970 l 158 970 l 116 571 l 156 571 l 198 970 l 254 970 l 213 571 m 110 515 l 104 455 l 144 455 l 150 515 "},".":{"ha":92,"x_min":0,"x_max":0,"o":"m 72 0 l 20 0 l 20 91 l 72 91 "},"·":{"ha":92,"x_min":0,"x_max":0,"o":"m 72 408 l 20 408 l 20 499 l 72 499 "},"?":{"ha":203,"x_min":0,"x_max":0,"o":"m 101 975 b 182 894 146 975 182 939 l 182 505 b 101 424 182 460 146 424 b 81 404 90 424 81 415 l 81 130 l 20 130 l 20 399 b 101 480 20 444 56 480 b 121 500 112 480 121 489 l 121 894 b 101 914 121 905 112 914 b 81 894 90 914 81 905 l 81 502 l 20 502 l 20 894 b 101 975 20 939 56 975 m 81 91 l 81 0 l 20 0 l 20 91 "},"¿":{"ha":203,"x_min":0,"x_max":0,"o":"m 121 749 l 121 840 l 182 840 l 182 749 m 101 -136 b 20 -54 56 -136 20 -99 l 20 334 b 101 416 20 379 56 416 b 121 436 112 416 121 425 l 121 709 l 182 709 l 182 441 b 101 360 182 396 146 360 b 81 340 90 360 81 351 l 81 -54 b 101 -74 81 -65 90 -74 b 121 -54 112 -74 121 -65 l 121 338 l 182 338 l 182 -54 b 101 -136 182 -99 146 -136 "},"\"":{"ha":175,"x_min":0,"x_max":0,"o":"m 20 969 l 71 969 l 71 907 l 66 818 l 25 818 l 20 907 m 103 969 l 155 969 l 155 907 l 149 818 l 109 818 l 103 907 "},"'":{"ha":92,"x_min":0,"x_max":0,"o":"m 20 969 l 71 969 l 71 907 l 66 818 l 25 818 l 20 907 "},";":{"ha":92,"x_min":0,"x_max":0,"o":"m 72 376 l 20 376 l 20 466 l 72 466 m 72 91 l 72 0 l 53 -61 l 20 -61 l 20 91 "},"/":{"ha":158,"x_min":0,"x_max":0,"o":"m 57 -131 l 158 970 l 101 970 l 0 -131 "},"_":{"ha":203,"x_min":0,"x_max":0,"o":"m 202 0 l 0 0 l 0 -53 l 202 -53 "},"{":{"ha":101,"x_min":0,"x_max":0,"o":"m 81 535 b 64 485 81 516 75 499 b 81 434 75 471 81 454 l 81 71 b 101 51 81 60 90 51 l 101 -6 b 20 76 56 -6 20 31 l 20 440 b 0 457 20 451 11 457 l 0 513 b 20 535 11 513 20 525 l 20 894 b 101 975 20 939 56 975 l 101 919 b 81 899 90 919 81 910 "},"}":{"ha":101,"x_min":0,"x_max":0,"o":"m 20 434 b 38 485 20 454 27 471 b 20 536 27 499 20 516 l 20 899 b 0 919 20 910 11 919 l 0 975 b 81 894 45 975 81 939 l 81 533 b 101 513 81 522 90 513 l 101 457 b 81 437 90 457 81 448 l 81 76 b 0 -6 81 31 45 -6 l 0 51 b 20 71 11 51 20 60 "},"[":{"ha":101,"x_min":0,"x_max":0,"o":"m 81 56 l 101 56 l 101 0 l 20 0 l 20 970 l 101 970 l 101 914 l 81 914 "},"]":{"ha":101,"x_min":0,"x_max":0,"o":"m 20 914 l 0 914 l 0 970 l 81 970 l 81 0 l 0 0 l 0 56 l 20 56 "},"(":{"ha":101,"x_min":0,"x_max":0,"o":"m 81 71 b 101 51 81 60 90 51 l 101 -6 b 20 76 56 -6 20 31 l 20 894 b 101 975 20 939 56 975 l 101 919 b 81 899 90 919 81 910 "},")":{"ha":101,"x_min":0,"x_max":0,"o":"m 20 71 b 0 51 20 60 11 51 l 0 -6 b 81 76 45 -6 81 31 l 81 894 b 0 975 81 939 45 975 l 0 919 b 20 899 11 919 20 910 "},"—":{"ha":404,"x_min":0,"x_max":0,"o":"m 384 466 l 20 466 l 20 413 l 384 413 "},"–":{"ha":242,"x_min":0,"x_max":0,"o":"m 222 466 l 20 466 l 20 413 l 222 413 "},"-":{"ha":203,"x_min":0,"x_max":0,"o":"m 182 466 l 20 466 l 20 413 l 182 413 "},"„":{"ha":165,"x_min":0,"x_max":0,"o":"m 72 91 l 72 0 l 53 -61 l 20 -61 l 20 91 m 145 0 l 126 -61 l 92 -61 l 92 91 l 145 91 "},"“":{"ha":165,"x_min":0,"x_max":0,"o":"m 20 909 l 39 970 l 72 970 l 72 819 l 20 819 m 92 819 l 92 909 l 112 970 l 145 970 l 145 819 "},"”":{"ha":165,"x_min":0,"x_max":0,"o":"m 72 970 l 72 880 l 53 819 l 20 819 l 20 970 m 145 880 l 126 819 l 92 819 l 92 970 l 145 970 "},"‘":{"ha":92,"x_min":0,"x_max":0,"o":"m 20 909 l 39 970 l 72 970 l 72 819 l 20 819 "},"’":{"ha":92,"x_min":0,"x_max":0,"o":"m 72 970 l 72 880 l 53 819 l 20 819 l 20 970 "},"‚":{"ha":92,"x_min":0,"x_max":0,"o":"m 72 91 l 72 0 l 53 -61 l 20 -61 l 20 91 "}," ":{"ha":111,"x_min":0,"x_max":0,"o":""},"¢":{"ha":203,"x_min":0,"x_max":0,"o":"m 129 840 b 182 764 160 829 182 799 l 182 440 l 121 440 l 121 769 b 101 789 121 780 112 789 b 81 769 90 789 81 780 l 81 71 b 101 51 81 60 90 51 b 121 71 112 51 121 60 l 121 400 l 182 400 l 182 76 b 129 0 182 41 160 11 l 129 -69 l 73 -69 l 73 0 b 20 76 42 11 20 41 l 20 764 b 73 840 20 799 42 829 l 73 909 l 129 909 "},"$":{"ha":203,"x_min":0,"x_max":0,"o":"m 121 899 b 101 919 121 910 112 919 b 81 899 90 919 81 910 l 81 533 b 101 513 81 522 90 513 b 182 432 146 513 182 477 l 182 76 b 129 0 182 41 160 11 l 129 -69 l 73 -69 l 73 0 b 20 76 42 11 20 41 l 20 435 l 81 435 l 81 71 b 101 51 81 60 90 51 b 121 71 112 51 121 60 l 121 437 b 101 457 121 448 112 457 b 20 538 56 457 20 493 l 20 894 b 73 970 20 929 42 959 l 73 1039 l 129 1039 l 129 970 b 182 894 160 959 182 929 l 182 534 l 121 534 "},"=":{"ha":203,"x_min":0,"x_max":0,"o":"m 182 505 l 20 505 l 20 557 l 182 557 m 182 465 l 182 412 l 20 412 l 20 465 "},"−":{"ha":203,"x_min":0,"x_max":0,"o":"m 182 511 l 20 511 l 20 459 l 182 459 "},"+":{"ha":203,"x_min":0,"x_max":0,"o":"m 127 459 l 127 386 l 75 386 l 75 459 l 20 459 l 20 511 l 75 511 l 75 584 l 127 584 l 127 511 l 182 511 l 182 459 "},"±":{"ha":203,"x_min":0,"x_max":0,"o":"m 127 459 l 127 386 l 75 386 l 75 459 l 20 459 l 20 511 l 75 511 l 75 584 l 127 584 l 127 511 l 182 511 l 182 459 m 182 347 l 20 347 l 20 294 l 182 294 "},"&":{"ha":203,"x_min":0,"x_max":0,"o":"m 182 457 l 182 -131 l 121 -131 l 121 -3 b 101 -6 115 -4 108 -6 b 20 76 56 -6 20 31 l 20 435 b 38 485 20 454 27 471 b 20 536 27 499 20 517 l 20 894 b 101 975 20 939 56 975 b 182 894 146 975 182 939 l 182 546 l 121 546 l 121 899 b 101 919 121 910 112 919 b 81 899 90 919 81 910 l 81 533 b 101 513 81 522 90 513 l 222 513 l 222 457 m 101 457 b 81 437 90 457 81 448 l 81 71 b 101 51 81 60 90 51 b 121 71 112 51 121 60 l 121 457 "},"@":{"ha":404,"x_min":0,"x_max":0,"o":"m 202 975 b 385 793 303 975 385 894 l 385 76 b 303 -6 385 31 348 -6 b 253 13 284 -6 267 2 b 202 -6 239 2 221 -6 b 121 76 157 -6 121 31 l 121 388 b 202 469 121 433 157 469 b 222 467 209 469 216 468 l 222 803 b 202 823 222 814 213 823 b 182 803 191 823 182 814 l 182 490 l 121 490 l 121 798 b 202 879 121 843 157 879 b 283 798 247 879 283 843 l 283 71 b 303 51 283 60 292 51 b 323 71 314 51 323 60 l 323 798 b 202 919 323 865 269 919 b 81 798 136 919 81 865 l 81 76 b 202 -44 81 9 136 -44 l 202 -101 b 20 81 102 -101 20 -19 l 20 793 b 202 975 20 894 102 975 m 222 393 b 202 413 222 404 213 413 b 182 393 191 413 182 404 l 182 71 b 202 51 182 60 191 51 b 222 71 213 51 222 60 "},"|":{"ha":101,"x_min":0,"x_max":0,"o":"m 81 -131 l 20 -131 l 20 970 l 81 970 "},"™":{"ha":363,"x_min":0,"x_max":0,"o":"m 294 911 b 278 927 294 919 287 927 b 262 911 269 927 262 919 l 262 586 l 211 586 l 211 911 b 195 927 211 919 203 927 b 179 911 186 927 179 919 l 179 586 l 129 586 l 129 909 b 195 975 129 946 158 975 b 236 960 211 975 224 970 b 276 975 247 970 262 975 b 342 909 313 975 342 946 l 342 586 l 294 586 m 0 921 l 39 921 l 39 586 l 89 586 l 89 921 l 129 921 l 129 970 l 0 970 "},"´":{"ha":203,"x_min":0,"x_max":0,"o":"m 66 1013 l 107 1099 l 164 1099 l 113 1013 "},"˘":{"ha":203,"x_min":0,"x_max":0,"o":"m 100 1013 b 28 1085 60 1013 28 1045 l 28 1099 l 77 1099 l 77 1085 b 100 1062 77 1073 88 1062 b 124 1085 113 1062 124 1073 l 124 1099 l 174 1099 l 174 1085 b 100 1013 174 1045 140 1013 "},"ˇ":{"ha":203,"x_min":0,"x_max":0,"o":"m 27 1099 l 74 1099 l 99 1055 l 126 1099 l 173 1099 l 130 1010 l 70 1010 "},"¸":{"ha":167,"x_min":0,"x_max":0,"o":"m 93 -24 b 77 -135 172 -32 161 -139 b 20 -129 57 -135 39 -132 l 24 -92 b 74 -97 41 -96 56 -97 b 78 -53 106 -99 110 -54 b 49 -54 67 -53 59 -53 l 53 0 l 94 0 "},"ˆ":{"ha":203,"x_min":0,"x_max":0,"o":"m 29 1010 l 71 1099 l 131 1099 l 174 1010 l 127 1010 l 101 1055 l 76 1010 "},"¨":{"ha":203,"x_min":0,"x_max":0,"o":"m 31 1017 l 31 1099 l 87 1099 l 87 1017 m 116 1017 l 116 1099 l 171 1099 l 171 1017 "},"˙":{"ha":203,"x_min":0,"x_max":0,"o":"m 73 1017 l 73 1099 l 129 1099 l 129 1017 "},"`":{"ha":203,"x_min":0,"x_max":0,"o":"m 38 1099 l 95 1099 l 136 1013 l 89 1013 "},"˝":{"ha":203,"x_min":0,"x_max":0,"o":"m 30 1012 l 71 1098 l 128 1098 l 77 1012 m 164 1098 l 221 1098 l 170 1012 l 123 1012 "},"¯":{"ha":203,"x_min":0,"x_max":0,"o":"m 31 1017 l 31 1069 l 171 1069 l 171 1017 "},"˛":{"ha":128,"x_min":0,"x_max":0,"o":"m 73 -61 b 109 -75 73 -81 97 -79 l 109 -132 b 34 -31 37 -147 -3 -106 l 49 0 l 96 0 b 73 -61 84 -25 73 -50 "},"˚":{"ha":203,"x_min":0,"x_max":0,"o":"m 161 1049 b 41 1049 161 969 41 969 b 161 1049 41 1128 161 1128 m 127 1049 b 77 1049 127 1082 77 1082 b 127 1049 77 1015 127 1015 "},"˜":{"ha":203,"x_min":0,"x_max":0,"o":"m 20 1024 b 109 1078 15 1089 60 1121 b 137 1093 130 1062 138 1075 l 181 1093 b 92 1039 187 1030 141 998 b 65 1024 72 1057 63 1044 "}}}
